<svg width="45" height="45" xmlns="http://www.w3.org/2000/svg" viewBox="0 0 45.37 35.05"><defs><style>.cls-1{fill:#fff;}.cls-2{fill:#1b1b1b;}</style></defs><title>Монтажная область 1</title><polygon class="cls-1" points="5.7 11.99 2.94 13.62 1.24 16.82 1.24 20.03 2.24 21.32 4.15 23.12 7.07 24.07 9.15 23.37 9.53 25.62 10.45 27.62 18.4 25.49 36.65 20.82 35.65 16.62 38.2 14.91 39.2 13.62 39.9 11.12 39.03 8.41 37.78 6.91 35.07 5.37 33.28 5.03 32.45 4.45 31.4 1.32 5.4 8.24 5.74 9.99 5.7 11.99"/><path class="cls-1" d="M40.55,19.35s.73.35-1.36,3.14S12.26,30,12.26,30l-1,.71,0,2.08,11,.79,15.5.67.87-1.5,0-1.83.63-1.29L42,28.78l1.66-1.71.79-3.16L43.94,22,42.61,19.7l-1.17-.63Z"/><path class="cls-2" d="M8.69,22.52l-.46.12a4.93,4.93,0,1,1-2.48-9.55L6.21,13,5.71,11l-.46.12A6.94,6.94,0,1,0,8.73,24.58l.47-.12Z"/><path class="cls-2" d="M34.42,15.85l.47-.12a4.94,4.94,0,0,0-2.48-9.56L32,6.29l-.51-1.94.47-.12a6.94,6.94,0,0,1,3.48,13.43l-.46.12Z"/><polygon class="cls-2" points="34.24 15.65 35.37 19.99 10.87 26.35 9.8 22.22 7.86 22.72 9.44 28.79 37.81 21.43 36.18 15.15 34.24 15.65"/><polygon class="cls-2" points="3.88 7.37 5.39 13.18 7.32 12.68 6.32 8.8 30.82 2.45 31.85 6.43 33.79 5.93 33.82 6.06 33.82 6.06 32.25 0.01 3.88 7.37"/><path class="cls-2" d="M41.48,17.57l-.93,1.78a4.93,4.93,0,0,1-2.31,9.38h-.48l-.07,2,.48,0a6.94,6.94,0,0,0,3.31-13.16Z"/><rect class="cls-2" x="8.83" y="15.55" width="6.29" height="1.92" transform="matrix(0.97, -0.25, 0.25, 0.97, -3.76, 3.54)"/><path class="cls-2" d="M17.91,9.19h0a2,2,0,0,1,1.66,1.65c.27,1.07-.13,2.14-.88,2.33a1.07,1.07,0,0,1-.25,0,2,2,0,0,1-1.66-1.64c-.28-1.07.13-2.14.88-2.34a1,1,0,0,1,.25,0m0-1.5a2.27,2.27,0,0,0-.63.08c-1.57.41-2.44,2.27-2,4.16a3.45,3.45,0,0,0,3.11,2.77,2.15,2.15,0,0,0,.62-.08c1.57-.4,2.45-2.27,2-4.16a3.46,3.46,0,0,0-3.11-2.77Z"/><path class="cls-2" d="M26.47,14.16h0a2,2,0,0,1,1.66,1.64c.28,1.07-.13,2.14-.88,2.34a1,1,0,0,1-.24,0,2,2,0,0,1-1.66-1.65,2.41,2.41,0,0,1,.11-1.62,1.22,1.22,0,0,1,.76-.71,1.07,1.07,0,0,1,.25,0m0-1.5a2.15,2.15,0,0,0-.62.08c-1.57.4-2.45,2.27-2,4.16A3.46,3.46,0,0,0,27,19.67a2.25,2.25,0,0,0,.62-.08c1.57-.41,2.44-2.27,1.95-4.16a3.45,3.45,0,0,0-3.11-2.77Z"/><rect class="cls-2" x="14.24" y="13.19" width="16.53" height="1.5" transform="translate(0.85 29.16) rotate(-66.87)"/><polygon class="cls-2" points="37.65 28.48 37.48 32.96 12.19 32.03 12.26 29.99 10.26 29.99 10.12 33.95 39.41 35.03 39.65 28.55 37.65 28.48"/></svg>