<svg width="34" height="34" xmlns="http://www.w3.org/2000/svg" viewBox="0 0 34.03 34"><defs><style>.cls-1{fill:#fff;}.cls-2{fill:#1b1b1b;}</style></defs><rect class="cls-1" x="1.01" y="1.01" width="32.01" height="31.99"/><path class="cls-2" d="M32,2V32H2V2H32m2-2H0V34H34V0Z"/><polygon class="cls-2" points="19.02 1.51 16.02 1.51 16.02 9.17 19.02 9.17 19.02 1.51 19.02 1.51"/><polygon class="cls-2" points="19.02 24.51 16.02 24.51 16.02 32.38 19.02 32.38 19.02 24.51 19.02 24.51"/><polygon class="cls-2" points="9.34 16.01 1.46 16.01 1.46 18.01 9.34 18.01 9.34 16.01 9.34 16.01"/><polygon class="cls-2" points="33.34 16.01 25.46 16.01 25.46 18.01 33.34 18.01 33.34 16.01 33.34 16.01"/><path class="cls-2" d="M17.76,10l6.71,6.71L17.76,23.4,11,16.68,17.76,10m0-2.83L8.21,16.68l9.55,9.55,9.54-9.55L17.76,7.14Z"/></svg>