<svg width="20" height="10" xmlns="http://www.w3.org/2000/svg" viewBox="0 0 17.89 16.02"><defs><style>.cls-1{fill:#ff8a00;}</style></defs><title>Монтажная область 1</title><path class="cls-1" d="M14.08,1.44,16.47,4,9.51,11,7,11V8.51l7.07-7.07m0-1.43L6,8.09,6,12l3.94,0L17.87,4,14.09,0Z"/><rect class="cls-1" x="13.88" y="1.57" width="0.95" height="4.02" transform="translate(1.67 11.2) rotate(-45)"/><path class="cls-1" d="M16,15v0H2.55A1.55,1.55,0,0,1,1,13.46v-.68A1.77,1.77,0,0,1,2.78,11H4.87V10H2.78A2.77,2.77,0,0,0,0,12.78v.68A2.55,2.55,0,0,0,2.55,16H17V15Z"/></svg>