<svg id="Слой_1" data-name="Слой 1" xmlns="http://www.w3.org/2000/svg" viewBox="0 0 74.96 72.06"><defs><style>.cls-1{fill:#ff8a00;}</style></defs><title>Монтажная область 1</title><rect class="cls-1" x="24.05" y="23.3" width="4.43" height="12.08"/><rect class="cls-1" x="24.01" y="58.16" width="4.43" height="12.46"/><rect class="cls-1" x="6.49" y="40.02" width="2.96" height="12.59" transform="translate(-38.35 54.28) rotate(-90)"/><rect class="cls-1" x="42.11" y="40.49" width="2.96" height="11.64" transform="translate(-2.73 89.9) rotate(-90)"/><path class="cls-1" d="M26.38,35.17,37.66,46.44,26.38,57.72,15.1,46.44,26.38,35.17m0-2.83-14.1,14.1,14.1,14.11L40.49,46.44,26.38,32.34Z"/><polygon class="cls-1" points="0.08 21.71 0.08 59.96 2.08 59.96 2.08 23.71 48.42 23.71 48.42 70.04 2.08 70.04 2.08 67.04 0.08 67.04 0.08 72.04 50.42 72.04 50.42 21.71 0.08 21.71"/><rect class="cls-1" x="48.55" y="1.55" width="4.43" height="12.08"/><rect class="cls-1" x="66.61" y="18.74" width="2.96" height="11.64" transform="translate(43.52 92.65) rotate(-90)"/><polygon class="cls-1" points="24.65 0.05 24.65 17 26.65 17 26.65 2.05 72.92 2.05 72.92 48.29 55.42 48.29 55.42 50.29 74.92 50.29 74.92 0.05 24.65 0.05"/><polygon class="cls-1" points="47.42 16.88 50.88 13.41 62.16 24.69 53.67 33.19 53.67 36.01 64.99 24.69 50.88 10.59 44.59 16.88 47.42 16.88"/></svg>