<svg id="Слой_1" data-name="Слой 1" xmlns="http://www.w3.org/2000/svg" viewBox="0 0 74.37 72.56"><defs><style>.cls-1{fill:#ff8a00;}.cls-2{fill:none;stroke:#ff8a00;stroke-width:2px;}</style></defs><title>Монтажная область 1</title><g id="заказать_звонок" data-name="заказать звонок"><path class="cls-1" d="M9.35,14.15h0c.91,0,2.38.37,4.22,2.12,3.2,3,4.07,4.64,4.23,5v.06l.13.25s1.36,2.79-.11,5.11a14.82,14.82,0,0,1-3.41,4h0l-.35.23-.23.36a7,7,0,0,0-.16,6.94A70.17,70.17,0,0,0,24.25,51c.66.64,8.65,8.24,15.41,9.9a6.47,6.47,0,0,0,1.5.18A5.56,5.56,0,0,0,45,59.57l.14-.15.11-.17s2.89-4.4,7-4.4A8.5,8.5,0,0,1,57.51,57c4.15,3.28,4.87,5.43,4.92,6.42a1.77,1.77,0,0,1-.34,1.25l-.15.1-.19.29c-.16.23-3.8,5.47-12.27,5.47a26.4,26.4,0,0,1-8.11-1.4C26.45,64.25,7,39.65,6,38.29c-.77-1.17-9.73-15.44,2.52-24a2.53,2.53,0,0,1,.86-.13m0-2a4.19,4.19,0,0,0-1.84.37C-7,22.48,4.34,39.46,4.34,39.46S24.71,65.79,40.75,71a28,28,0,0,0,8.73,1.5c9.75,0,13.93-6.36,13.93-6.36s4.29-3.65-4.65-10.74a10.38,10.38,0,0,0-6.47-2.57c-5.34,0-8.7,5.33-8.7,5.33a3.53,3.53,0,0,1-2.43.92,4.32,4.32,0,0,1-1-.13c-6.46-1.58-14.53-9.42-14.53-9.42A68.41,68.41,0,0,1,15.44,37.22a5,5,0,0,1,.08-4.91,15.83,15.83,0,0,0,4-4.58c2.13-3.36.2-7.1.2-7.1s-.52-1.78-4.76-5.81c-2.28-2.17-4.26-2.67-5.6-2.67Z"/></g><path class="cls-1" d="M63.35,2.64,71.76,25.3l-31,11.52L32.31,14.16l31-11.52M64.53.07,29.74,13l9.8,26.41L74.33,26.48,64.53.07Z"/><path class="cls-2" d="M31.17,14.1s18.75,10.67,22.41,9S64.08,1.69,64.08,1.69"/><rect class="cls-1" x="42.21" y="20.4" width="2" height="17" transform="translate(16.34 -15.6) rotate(25.1)"/><rect class="cls-1" x="63.77" y="13.21" width="2" height="17" transform="translate(113.54 -26.13) rotate(117.02)"/></svg>