<svg width="30" height="30" xmlns="http://www.w3.org/2000/svg" viewBox="0 0 26.33 26.33"><defs><style>.cls-1{fill:#ff8a00;}.cls-2{fill:#fff;}.cls-3{fill:none;stroke:#fff;stroke-miterlimit:10;}</style></defs><title>Монтажная область 1</title><g id="инстаграм"><circle class="cls-1" cx="13.17" cy="13.17" r="13.16"/><path class="cls-2" d="M17,7.43A2.61,2.61,0,0,1,19.64,10v6.63A2.61,2.61,0,0,1,17,19.26H9.82a2.61,2.61,0,0,1-2.6-2.6V10a2.61,2.61,0,0,1,2.6-2.6H17m0-1H9.82A3.6,3.6,0,0,0,6.22,10v6.63a3.6,3.6,0,0,0,3.6,3.6H17a3.61,3.61,0,0,0,3.61-3.6V10A3.61,3.61,0,0,0,17,6.43Z"/><circle class="cls-3" cx="13.42" cy="13.36" r="3.14"/><circle class="cls-2" cx="17.54" cy="9.54" r="0.84"/></g></svg>