<svg width="34" height="34" xmlns="http://www.w3.org/2000/svg" viewBox="0 0 30.87 29.74"><defs><style>.cls-1{fill:#ff8a00;}</style></defs><title>Монтажная область 1</title><path class="cls-1" d="M18,11.73v17H1v-17H18m1-1H0v19H19v-19Z"/><polygon class="cls-1" points="4.27 11.22 19.05 5.83 24.87 21.8 18.59 24.09 18.6 25.15 26.15 22.4 19.64 4.55 1.79 11.05 1.85 11.19 4.27 11.22"/><polygon class="cls-1" points="6.37 10.16 20.55 1.4 29.48 15.87 24.44 18.98 24.81 19.93 30.86 16.19 20.88 0.03 4.71 10.01 5.1 10.64 6.37 10.16"/><rect class="cls-1" x="8.12" y="14.7" width="0.9" height="2.02"/><rect class="cls-1" x="4.62" y="18.2" width="0.9" height="2.02" transform="translate(-14.15 24.28) rotate(-90)"/><rect class="cls-1" x="5.54" y="15.7" width="0.9" height="2.02" transform="translate(-11.08 11.8) rotate(-54.23)"/><rect class="cls-1" x="8.12" y="23.64" width="0.9" height="2.02"/><rect class="cls-1" x="4.62" y="20.14" width="0.9" height="2.02" transform="translate(26.22 16.09) rotate(90)"/><rect class="cls-1" x="5.58" y="22.85" width="0.9" height="2.02" transform="translate(21.86 5.02) rotate(54.23)"/><rect class="cls-1" x="10.06" y="14.7" width="0.9" height="2.02" transform="translate(21.01 31.43) rotate(-180)"/><rect class="cls-1" x="13.56" y="18.2" width="0.9" height="2.02" transform="translate(-5.21 33.22) rotate(-90)"/><rect class="cls-1" x="12.74" y="15.7" width="0.9" height="2.02" transform="translate(7.34 37.19) rotate(-125.77)"/><rect class="cls-1" x="10.06" y="23.64" width="0.9" height="2.02" transform="translate(21.01 49.31) rotate(-180)"/><rect class="cls-1" x="13.56" y="20.14" width="0.9" height="2.02" transform="translate(35.16 7.15) rotate(90)"/><rect class="cls-1" x="12.52" y="22.81" width="0.9" height="2.02" transform="matrix(-0.55, 0.84, -0.84, -0.55, 39.99, 25.99)"/></svg>