<svg width="34" height="34" xmlns="http://www.w3.org/2000/svg" viewBox="0 0 29.13 28.96"><defs><style>.cls-1{fill:#1b1b1b;}</style></defs><path class="cls-1" d="M13.89,2.06V27.94H1V2.06H13.89m1-1H0V28.94H14.89V1.06Z"/><path class="cls-1" d="M28,15.06V27.93H1V15.06H28m1-1H0V28.93H29V14.06Z"/><path class="cls-1" d="M23,14.72c0,.06,0,.13,0,.19a8,8,0,1,1-8.45-8v-1a9,9,0,1,0,9.45,9c0-.06,0-.13,0-.19Z"/><path class="cls-1" d="M20.22,14.75c0,.05,0,.11,0,.16a5.2,5.2,0,1,1-5.77-5.17v-1a6.23,6.23,0,1,0,6.77,6.2c0-.05,0-.11,0-.16Z"/><path class="cls-1" d="M5,1.64A5.18,5.18,0,0,1,.52,5.23v1A6.18,6.18,0,0,0,6.08,1.64Z"/><path class="cls-1" d="M7.94,1.48A8,8,0,0,1,.56,8V9A9,9,0,0,0,9,1.48Z"/><path class="cls-1" d="M5,28A5.19,5.19,0,0,0,.52,24.37v-1A6.19,6.19,0,0,1,6.09,28Z"/><path class="cls-1" d="M7.94,28A8,8,0,0,0,.56,21.48v-1A9,9,0,0,1,9,28Z"/><path class="cls-1" d="M24.45,28A5.17,5.17,0,0,1,29,24.36v-1A6.21,6.21,0,0,0,23.38,28Z"/><path class="cls-1" d="M21.53,28a8,8,0,0,1,7.38-6.56v-1A9,9,0,0,0,20.52,28Z"/><path class="cls-1" d="M21.14,5.34A2.61,2.61,0,0,1,23.79,7.9c0,1.23-.61,1.88-2.52,2.66a36.48,36.48,0,0,1-3.89,1.2q.29-1,.93-3.12l.14-.44c.88-2.86,2.24-2.86,2.69-2.86m0-1c-2,0-3.07,1.69-3.65,3.56-.29,1-1.54,4.79-1.27,5a.41.41,0,0,0,.22,0,26.77,26.77,0,0,0,5.21-1.45c1.86-.76,3.14-1.61,3.14-3.58a3.61,3.61,0,0,0-3.65-3.56Z"/><rect class="cls-1" x="22.94" y="4.51" width="0.96" height="2.46" transform="translate(10.92 -14.89) rotate(45)"/><path class="cls-1" d="M27.58,1a.53.53,0,0,1,.38.91L25.69,4.2a.53.53,0,0,1-.38.16.55.55,0,0,1-.38-.16.54.54,0,0,1,0-.76L27.2,1.17A.54.54,0,0,1,27.58,1m0-1a1.55,1.55,0,0,0-1.09.45L24.23,2.73a1.55,1.55,0,0,0,0,2.18,1.53,1.53,0,0,0,2.17,0l2.27-2.27A1.54,1.54,0,0,0,27.58,0Z"/><path class="cls-1" d="M17.76,8.7l-.18-.2h0a4.18,4.18,0,0,1-.74-2.41A4.12,4.12,0,0,1,19,2.82c1.28-.51,4.25-.12,5.05.58l.44-.88c-1.18-1-4.35-1.23-5.86-.63A5.15,5.15,0,0,0,15.84,6a5.13,5.13,0,0,0,1,3.13l.59.67Z"/><path class="cls-1" d="M26.7,9a10.49,10.49,0,0,0-.14-4.41l-.86.64a7.62,7.62,0,0,1,0,3.6L25.63,9l.07.18a4.33,4.33,0,0,1,.4,2.08,1.94,1.94,0,0,1-1.67,1.45,5.13,5.13,0,0,1-3.87-1.18l-.12-.1-1.16.29c.22.21.43.41.63.58a6.32,6.32,0,0,0,3.92,1.46,4.77,4.77,0,0,0,.76-.06A2.94,2.94,0,0,0,27,11.67,4.63,4.63,0,0,0,26.7,9Z"/></svg>