<svg width="34" height="34" xmlns="http://www.w3.org/2000/svg" viewBox="0 0 24.08 28.48"><defs><style>.cls-1{fill:#ff8a00;}</style></defs><polygon class="cls-1" points="20.91 14.52 20.91 15.52 20.91 17.81 20.91 27.46 16.07 27.46 16.07 19.46 16.07 18.46 15.08 18.46 9 18.46 8.01 18.46 8.01 19.46 8.01 27.46 3.17 27.46 3.17 17.81 3.15 17.81 3.15 14.52 2.18 14.52 2.18 28.46 9 28.46 9 19.46 15.08 19.46 15.08 28.46 21.9 28.46 21.9 14.52 20.91 14.52"/><rect class="cls-1" x="20.9" y="14.52" width="3.14" height="1"/><rect class="cls-1" x="0.05" y="14.52" width="3.14" height="1"/><rect class="cls-1" x="-0.85" y="13.35" width="2.8" height="1" transform="translate(-13.3 14.4) rotate(-90)"/><rect class="cls-1" x="22.14" y="13.35" width="2.8" height="1" transform="translate(9.68 37.39) rotate(-90)"/><polygon class="cls-1" points="0.7 13.19 0.02 12.48 12.01 0.01 12.69 0.72 0.7 13.19"/><polygon class="cls-1" points="23.32 13.19 23.99 12.48 12.01 0.01 11.33 0.72 23.32 13.19"/></svg>