<svg width="34" height="34" xmlns="http://www.w3.org/2000/svg" viewBox="0 0 31.97 30.03"><defs><style>.cls-1{fill:#ff8a00;}</style></defs><title>Монтажная область 1</title><path class="cls-1" d="M16.92,1l0,3v.72l.68.22L20,5.73V9H11V5.73L13.29,5,14,4.75l0-.7.08-3h2.86m1-1H13.09L13,4,10,5v5H21V5l-3-1,0-4Z"/><rect class="cls-1" x="10.44" y="7.01" width="9.92" height="1"/><path class="cls-1" d="M31,17V29H1V17H31m1-1H0V30H32V16Z"/><path class="cls-1" d="M19,23v4H13V23h6m1-1H12v6h8V22Z"/><rect class="cls-1" x="11.96" y="15.01" width="2.99" height="1"/><rect class="cls-1" x="15.96" y="15.01" width="2.99" height="1"/><rect class="cls-1" x="11.97" y="20" width="6.98" height="1"/><rect class="cls-1" x="3.13" y="22.45" width="12.58" height="1" transform="translate(-13.53 32.37) rotate(-90)"/><rect class="cls-1" x="3.42" y="22.48" width="7.99" height="1" transform="translate(-15.57 30.4) rotate(-90)"/><rect class="cls-1" x="15.13" y="22.45" width="12.58" height="1" transform="translate(-1.53 44.37) rotate(-90)"/><rect class="cls-1" x="19.42" y="22.48" width="7.99" height="1" transform="translate(0.43 46.4) rotate(-90)"/><rect class="cls-1" x="11.97" y="18.01" width="0.99" height="1"/><rect class="cls-1" x="13.97" y="18.01" width="0.99" height="1"/><rect class="cls-1" x="15.97" y="18.01" width="0.99" height="1"/><rect class="cls-1" x="17.97" y="18.01" width="0.99" height="1"/><rect class="cls-1" x="27.96" y="12" width="1" height="4.09"/><rect class="cls-1" x="25.96" y="12" width="1" height="1.99"/><rect class="cls-1" x="27.11" y="11.51" width="1" height="1.99" transform="translate(15.11 40.11) rotate(-90)"/></svg>