<svg width="34" height="34" xmlns="http://www.w3.org/2000/svg" viewBox="0 0 30.14 29.11"><defs><style>.cls-1{fill:#ff8a00;}</style></defs><title>Монтажная область 1</title><path class="cls-1" d="M4.13,2h0a1,1,0,0,1,1-1h1a1,1,0,0,1,1,1h1a2,2,0,0,0-2-2h-1a2,2,0,0,0-2,2V14.53a.48.48,0,0,0,.48.48h.48Z"/><polygon class="cls-1" points="7.63 1.33 4.77 5.08 10.49 5.08 7.63 1.33"/><path class="cls-1" d="M28.66,15.17,24.44,26.05H5.77L1.54,15.17H28.66m1.46-1H.08l5,12.88h20l5-12.88Z"/><rect class="cls-1" x="6.17" y="26.59" width="1.96" height="2.5"/><rect class="cls-1" x="22.17" y="26.59" width="1.96" height="2.5"/></svg>