<svg width="34" height="34" xmlns="http://www.w3.org/2000/svg" viewBox="0 0 28.28 28.26"><defs><style>.cls-1{fill:#ff8a00;}</style></defs><title>Монтажная область 1</title><path class="cls-1" d="M14.13,1.16l12.14,7-12.1,7L2,8.11l12.1-6.95m0-1.16L0,8.11l14.15,8.14,14.1-8.1L14.13,0Z"/><polygon class="cls-1" points="26.2 14.11 26.27 14.15 14.17 21.1 2.03 14.11 2.03 14.11 0.02 14.11 14.17 22.25 28.27 14.15 28.2 14.11 26.2 14.11"/><polygon class="cls-1" points="26.2 20.11 26.27 20.15 14.17 27.1 2.03 20.11 2.03 20.11 0.02 20.11 14.17 28.25 28.27 20.15 28.2 20.11 26.2 20.11"/></svg>