<svg id="Слой_1" data-name="Слой 1" xmlns="http://www.w3.org/2000/svg" viewBox="0 0 92.57 75.68"><defs><style>.cls-1{fill:#ff8a00;}.cls-2,.cls-3{fill:none;stroke:#ff8a00;}.cls-2{stroke-width:2px;}.cls-3{stroke-linecap:round;}</style></defs><title>Монтажная область 1</title><rect class="cls-1" x="32.15" y="65.21" width="21.13" height="2"/><path class="cls-1" d="M18.61,60.25A6.69,6.69,0,1,1,12,66.94a6.66,6.66,0,0,1,6.63-6.69m0-2a8.69,8.69,0,1,0,8.62,8.69,8.66,8.66,0,0,0-8.62-8.69Z"/><path class="cls-1" d="M66.61,60.25A6.69,6.69,0,1,1,60,66.94a6.66,6.66,0,0,1,6.63-6.69m0-2a8.69,8.69,0,1,0,8.62,8.69,8.66,8.66,0,0,0-8.62-8.69Z"/><rect class="cls-1" x="1.07" y="42.63" width="45.96" height="1.67"/><rect class="cls-1" x="62.64" y="25.56" width="10.78" height="2.19"/><rect class="cls-1" x="81.52" y="22.1" width="1.58" height="26.16" transform="translate(-0.05 70.25) rotate(-46.2)"/><path class="cls-1" d="M91.88,43.59H90.44V55.46a1.72,1.72,0,0,1-1.71,1.71H86.15v2h2.58a3.71,3.71,0,0,0,3.71-3.71V44.15A.56.56,0,0,0,91.88,43.59Z"/><rect class="cls-1" x="75.23" y="48.48" width="15.46" height="1.94"/><path class="cls-1" d="M90.44,54.75V59.6h0V64a2.32,2.32,0,0,1-2.31,2.32h-13v2h13A4.31,4.31,0,0,0,92.4,64V54.75Z"/><path class="cls-2" d="M29.94,9.5S21.77,2.75,17.4,3.17s-4.67,16-.42,19.5c2.65,2.21,13.42-6.33,13.42-6.33"/><path class="cls-3" d="M18.92.53s9.23,4.68,11.44,8.93"/><path class="cls-3" d="M19.42,25.55s9.23-4.69,11.44-8.94"/><rect class="cls-1" x="24.7" y="8.59" width="1.13" height="5.06" transform="translate(4.43 29.23) rotate(-64.75)"/><rect class="cls-1" x="24.7" y="12.59" width="1.13" height="5.06" transform="translate(28.16 -14.18) rotate(64.75)"/><path class="cls-2" d="M35.87,9.5S44,2.75,48.41,3.17s4.67,16,.42,19.5c-2.65,2.21-13.42-6.33-13.42-6.33"/><path class="cls-3" d="M46.89.53S37.66,5.21,35.45,9.46"/><path class="cls-3" d="M46.39,25.55S37.16,20.86,35,16.61"/><rect class="cls-1" x="39.98" y="8.59" width="1.13" height="5.06" transform="translate(47.79 52.53) rotate(-115.25)"/><rect class="cls-1" x="39.98" y="12.59" width="1.13" height="5.06" transform="translate(71.52 -15.1) rotate(115.25)"/><path class="cls-1" d="M36,9.4V16H30V9.4h6m1-1H29V17h8V8.4Z"/><path class="cls-1" d="M2.11,61.53V22A3.69,3.69,0,0,1,5.8,18.34h9.05l-.64-2H5.8A5.68,5.68,0,0,0,.11,22v39.5A5.68,5.68,0,0,0,5.8,67.21h5v-2h-5A3.69,3.69,0,0,1,2.11,61.53Z"/><path class="cls-1" d="M57.67,16.34H51.6l-.47,2h6.54A3.69,3.69,0,0,1,61.36,22V44.38h2V22A5.69,5.69,0,0,0,57.67,16.34Z"/></svg>