<svg id="Слой_1" data-name="Слой 1" xmlns="http://www.w3.org/2000/svg" viewBox="0 0 105.21 72.75"><defs><style>.cls-1{fill:#ff8a00;}.cls-2{fill:none;stroke:#ff8a00;stroke-miterlimit:10;stroke-width:2px;}</style></defs><title>Монтажная область 1</title><path class="cls-1" d="M14.6,2.05a1.28,1.28,0,0,1,.39.07l10.8,3.62a1.23,1.23,0,0,1,.72.62,1.26,1.26,0,0,1,.07.95L15.26,41.06a1.23,1.23,0,0,1-1.17.85,1.34,1.34,0,0,1-.4-.07L2.89,38.22a1.25,1.25,0,0,1-.78-1.57L13.42,2.9a1.25,1.25,0,0,1,1.18-.85m0-2a3.25,3.25,0,0,0-3.08,2.22L.21,36a3.25,3.25,0,0,0,2.05,4.11l10.79,3.62a3.43,3.43,0,0,0,1,.17,3.24,3.24,0,0,0,3.07-2.22L28.47,8a3.24,3.24,0,0,0-2-4.11L15.63.22a3.37,3.37,0,0,0-1-.17Z"/><path class="cls-1" d="M90.59,1.3a1.27,1.27,0,0,1,1.18.85L103.08,35.9a1.26,1.26,0,0,1-.07,1,1.23,1.23,0,0,1-.72.62l-10.8,3.62a1.28,1.28,0,0,1-.39.07,1.24,1.24,0,0,1-1.18-.85L78.61,6.56A1.25,1.25,0,0,1,79.39,5l10.8-3.62a1.34,1.34,0,0,1,.4-.07m0-2a3.43,3.43,0,0,0-1,.17L78.76,3.09A3.25,3.25,0,0,0,76.71,7.2L88,40.94a3.25,3.25,0,0,0,3.08,2.22,3.37,3.37,0,0,0,1-.17l10.8-3.62a3.24,3.24,0,0,0,2-4.11L93.66,1.52A3.24,3.24,0,0,0,90.59-.7Z"/><path class="cls-1" d="M23.45,38.61h0a3.83,3.83,0,0,1,1.87.48,3.95,3.95,0,0,1,1.61,5.36l-3.65,6.8a4,4,0,0,1-3.49,2.08,3.82,3.82,0,0,1-1.87-.47A4,4,0,0,1,16.3,47.5L20,40.7a4,4,0,0,1,3.5-2.09m0-2a6,6,0,0,0-5.26,3.14l-3.65,6.8A6,6,0,0,0,17,54.62a5.85,5.85,0,0,0,2.82.71A5.93,5.93,0,0,0,25,52.19L28.7,45.4a6,6,0,0,0-2.43-8.07,5.89,5.89,0,0,0-2.82-.72Z"/><path class="cls-1" d="M41.07,51.11h0a3.83,3.83,0,0,1,1.87.48A4,4,0,0,1,44.56,57l-3.65,6.8a4,4,0,0,1-3.5,2.08,3.85,3.85,0,0,1-1.87-.47A3.95,3.95,0,0,1,33.93,60l3.65-6.8a4,4,0,0,1,3.49-2.09m0-2a6,6,0,0,0-5.25,3.14l-3.65,6.8a6,6,0,0,0,2.42,8.07,5.87,5.87,0,0,0,2.82.71,6,6,0,0,0,5.26-3.14l3.65-6.79a6,6,0,0,0-2.43-8.07,5.86,5.86,0,0,0-2.82-.72Z"/><path class="cls-1" d="M49.39,58.8h0a3.89,3.89,0,0,1,1.87.48,3.94,3.94,0,0,1,1.61,5.36l-2.14,4a4,4,0,0,1-3.49,2.09,4,4,0,0,1-3.49-5.84l2.14-4a4,4,0,0,1,3.5-2.09m0-2a6,6,0,0,0-5.26,3.14l-2.14,4A6,6,0,0,0,44.42,72h0a6,6,0,0,0,8.07-2.43l2.14-4a6,6,0,0,0-5.24-8.79Z"/><path class="cls-1" d="M32.57,45h0a4,4,0,0,1,3.49,5.84L31,60.33a4,4,0,0,1-3.49,2.09,3.83,3.83,0,0,1-1.87-.48A4,4,0,0,1,24,56.58l5.11-9.5A4,4,0,0,1,32.57,45m0-2a6,6,0,0,0-5.25,3.14l-5.11,9.5a6,6,0,0,0,2.43,8.07,5.86,5.86,0,0,0,2.82.72,6,6,0,0,0,5.25-3.14l5.11-9.5A6,6,0,0,0,32.57,43Z"/><path class="cls-1" d="M60.72,59.91,50.14,52.76l-1.3,1.53,10.75,7.28a3.48,3.48,0,0,1-3.89,5.76l-2.24-1.52-1,1.77L54.58,69a5.48,5.48,0,0,0,6.14-9.07Z"/><path class="cls-1" d="M67.38,51.42,55.92,43.81l-1.09,1.67,11.44,7.6a4,4,0,0,1,1.11,5.5l-.38.57a4,4,0,0,1-5.49,1.11L50.13,52.71,49,54.38,60.4,61.93a6,6,0,0,0,8.26-1.67l.39-.58A6,6,0,0,0,67.38,51.42Z"/><path class="cls-1" d="M76.58,44.34,62,35l-1.11,1.67L75.5,46a4,4,0,0,1,1.73,2.49,3.92,3.92,0,0,1-.54,3l-.33.52a4,4,0,0,1-5.47,1.19L56.18,43.75l-1.11,1.67,14.74,9.47a5.9,5.9,0,0,0,3.21.94,6,6,0,0,0,5-2.74l.33-.51A6,6,0,0,0,76.58,44.34Z"/><path class="cls-1" d="M85.5,36,63.08,21.84l-.64,2,22,13.86a4,4,0,0,1,1.24,5.47l-.51.81a4,4,0,0,1-5.47,1.24L62.75,34.49l-1.24,1.59L78.63,46.87A6,6,0,0,0,86.85,45l.51-.82A6,6,0,0,0,85.5,36Z"/><path class="cls-2" d="M78.18,10.71l-5.56-.06S66.49,6.08,63.37,6s-7.13-.25-11.06,2-15.5,15.06-15.5,15.06,3,7.44,10.93,5.25,13.75-5.93,15.25-5"/><path class="cls-2" d="M26.87,7.27l9.06-.44s9.75-1.75,14.5,2"/></svg>