<svg id="Слой_1" data-name="Слой 1" xmlns="http://www.w3.org/2000/svg" viewBox="0 0 92.35 75.18"><defs><style>.cls-1{fill:#ff8a00;}</style></defs><title>Монтажная область 1</title><rect class="cls-1" x="19.14" y="51.98" width="73" height="1.97"/><rect class="cls-1" x="19.14" y="44.98" width="73" height="1.97"/><rect class="cls-1" x="-7.01" y="22.88" width="46.15" height="1.97" transform="translate(36.47 3.58) rotate(79.12)"/><path class="cls-1" d="M30.57,60.73a6.17,6.17,0,1,1,0,12.32,6.17,6.17,0,1,1,0-12.32m0-2a8.17,8.17,0,1,0,0,16.32,8.17,8.17,0,1,0,0-16.32Z"/><path class="cls-1" d="M80.57,60.73a6.17,6.17,0,1,1-6.5,6.16,6.34,6.34,0,0,1,6.5-6.16m0-2a8.17,8.17,0,1,0,8.5,8.16,8.34,8.34,0,0,0-8.5-8.16Z"/><rect class="cls-1" x="0.06" y="0.07" width="12.78" height="1.88"/><path class="cls-1" d="M61.11,37.18v4h-11v-4h11m2-2h-15v8h15v-8Z"/><path class="cls-1" d="M58.16,18.15v4.79l-2-1.2-1-.61-1,.62-1.92,1.16V18.15h6m2-2h-10V26.46l5-3,5,3V16.15Z"/><polygon class="cls-1" points="75.05 34.96 75.05 44.93 35.12 44.93 35.12 17.21 75.05 17.21 75.05 28.94 77.05 28.94 77.05 15.21 33.12 15.21 33.12 46.93 77.05 46.93 77.05 34.96 75.05 34.96"/></svg>