<svg width="34" height="34" xmlns="http://www.w3.org/2000/svg" viewBox="0 0 26.41 26.52"><defs><style>.cls-1{fill:#ff8a00;}</style></defs><title>Монтажная область 1</title><path class="cls-1" d="M17,9.51v16H1.25v-16H17m1-1H.25v18H18v-18Z"/><rect class="cls-1" x="1.09" y="2.94" width="16.07" height="1"/><rect class="cls-1" x="1.61" y="-0.34" width="1" height="4.89" transform="translate(2.11 -0.87) rotate(45)"/><rect class="cls-1" x="1.61" y="2.41" width="1" height="4.89" transform="translate(-2.81 2.91) rotate(-45)"/><rect class="cls-1" x="15.61" y="-0.34" width="1" height="4.89" transform="translate(28.99 -7.79) rotate(135)"/><rect class="cls-1" x="15.61" y="2.41" width="1" height="4.89" transform="translate(24.07 19.67) rotate(-135)"/><rect class="cls-1" x="14.87" y="16.75" width="16.07" height="1" transform="translate(5.66 40.15) rotate(-90)"/><rect class="cls-1" x="21.07" y="21.83" width="1" height="4.89" transform="translate(-10.85 22.36) rotate(-45)"/><rect class="cls-1" x="23.81" y="21.83" width="1" height="4.89" transform="translate(24.34 58.63) rotate(-135)"/><rect class="cls-1" x="21.07" y="7.83" width="1" height="4.89" transform="translate(13.58 -12.24) rotate(45)"/><rect class="cls-1" x="23.81" y="7.83" width="1" height="4.89" transform="translate(48.77 0.34) rotate(135)"/></svg>