<svg width="34" height="34" xmlns="http://www.w3.org/2000/svg" viewBox="0 0 27.43 26.97"><defs><style>.cls-1{fill:#ff8a00;}</style></defs><title>Монтажная область 1</title><path class="cls-1" d="M7.06,14.33l5.29,5c.24,2.29-1.82,4.07-3.08,5.14a7.24,7.24,0,0,0-.87.83,41,41,0,0,1-6.66.57,14.36,14.36,0,0,0,.17-4.29,11.5,11.5,0,0,1,.2-4c.6-1.57,3.46-2.78,4.95-3.27m.27-1.13s-5.13,1.37-6.15,4S2,25.31,0,27c0,0,8.69-.13,9.1-.89s4.93-3.28,4.18-7.18l-6-5.68Z"/><path class="cls-1" d="M23.43,1a3,3,0,0,1,2.12,5.1L15.46,16.19,11.23,12,21.32,1.88A3,3,0,0,1,23.43,1m0-1a4,4,0,0,0-2.82,1.16L9.82,12l5.64,5.64L26.25,6.81a4,4,0,0,0,0-5.64h0A4,4,0,0,0,23.43,0Z"/></svg>