<svg width="34" height="34" xmlns="http://www.w3.org/2000/svg" viewBox="0 0 29.03 28.73"><defs><style>.cls-1{fill:#ff8a00;}</style></defs><title>Монтажная область 1</title><path class="cls-1" d="M14.52,1A13.45,13.45,0,0,1,28,14.37a13.5,13.5,0,0,1-27,0A13.44,13.44,0,0,1,14.52,1m0-1A14.43,14.43,0,0,0,0,14.37a14.5,14.5,0,0,0,29,0A14.43,14.43,0,0,0,14.52,0Z"/><rect class="cls-1" x="0.44" y="13.87" width="28.13" height="1"/><path class="cls-1" d="M25.7,5.94l-.21-.32A16.62,16.62,0,0,1,15,9.28,16.55,16.55,0,0,1,4.13,5.38l-.72.79A17.78,17.78,0,0,0,15,10.28,17.9,17.9,0,0,0,26,6.55Z"/><path class="cls-1" d="M13.91,28.22l.67,0A15.77,15.77,0,0,1,7,14.35c0-6.2,3.22-11.54,7.84-14L13.48.19,13.34.11A16.8,16.8,0,0,0,6,14.35,17.3,17.3,0,0,0,12.28,28Z"/><path class="cls-1" d="M20.89,14.35c0,6.11-3.13,11.4-7.66,13.89l.18,0,1.94-.1a17.22,17.22,0,0,0,6.54-13.83A17.25,17.25,0,0,0,15.41.56L14.6.5,13.43.57A15.75,15.75,0,0,1,20.89,14.35Z"/><path class="cls-1" d="M15,18.41a17.82,17.82,0,0,0-11.54,4.1l.57.93a16.49,16.49,0,0,1,11-4A16.58,16.58,0,0,1,25.41,23l.22-.26.47-.55A17.81,17.81,0,0,0,15,18.41Z"/></svg>