<svg width="34" height="34" xmlns="http://www.w3.org/2000/svg" viewBox="0 0 30.27 31.44"><defs><style>.cls-1{fill:#ff8a00;}</style></defs><title>Монтажная область 1</title><polygon class="cls-1" points="29.26 3.17 29.26 4.17 29.26 25.43 29.26 30.43 3.26 30.43 3.26 25.43 2.26 25.43 2.26 31.43 30.26 31.43 30.26 3.17 29.26 3.17"/><rect class="cls-1" x="1.33" y="25.45" width="7.96" height="1"/><rect class="cls-1" x="6.28" y="21.4" width="7.96" height="1"/><rect class="cls-1" x="11.28" y="17.44" width="7.96" height="1"/><rect class="cls-1" x="16.25" y="13.4" width="7.96" height="1"/><rect class="cls-1" x="21.41" y="9.44" width="7.96" height="1"/><rect class="cls-1" x="20.75" y="5.9" width="7.96" height="1" transform="translate(18.33 31.14) rotate(-90)"/><rect class="cls-1" x="22" y="11.2" width="3.42" height="1" transform="translate(12.01 35.41) rotate(-90)"/><rect class="cls-1" x="17.03" y="15.38" width="3.42" height="1" transform="translate(2.86 34.62) rotate(-90)"/><rect class="cls-1" x="12.03" y="19.57" width="3.42" height="1" transform="translate(-6.34 33.81) rotate(-90)"/><rect class="cls-1" x="7.07" y="23.45" width="3.42" height="1" transform="translate(-15.17 32.73) rotate(-90)"/><rect class="cls-1" x="0.16" y="20.57" width="9.11" height="1" transform="translate(-16.35 25.79) rotate(-90)"/><rect class="cls-1" x="13.19" y="-6.38" width="1" height="33.15" transform="translate(13.84 -6.87) rotate(53.81)"/></svg>