<svg width="34" height="34" xmlns="http://www.w3.org/2000/svg" viewBox="0 0 31.41 30.09"><defs><style>.cls-1{fill:#ff8a00;}</style></defs><title>Монтажная область 1</title><rect class="cls-1" x="3.62" y="4.1" width="9.4" height="1"/><path class="cls-1" d="M21.52,22.08l7.37,7H14.15l7.37-7m0-1.38-9.87,9.38H31.4L21.52,20.7Z"/><polygon class="cls-1" points="15.58 26.95 3.71 26.95 13 17.31 19.16 23.7 19.9 23.02 13 15.87 1.35 27.95 14.49 27.95 15.58 26.95"/><path class="cls-1" d="M15.94,12.12H6.06a2,2,0,0,0-2,2V18a2,2,0,0,0,2,2h3.6l1-1H6.06a1,1,0,0,1-1-1V14.12a1,1,0,0,1,1-1h9.88a1,1,0,0,1,1,1V18a1,1,0,0,1-1,1H15.3l1.05.95A2,2,0,0,0,17.94,18V14.12A2,2,0,0,0,15.94,12.12Z"/><polygon class="cls-1" points="1.02 8.52 3.73 5.78 4.02 5.49 4.02 5.08 4.02 1.04 17.98 1.04 17.98 5.01 17.98 5.42 18.26 5.71 20.98 8.51 20.98 22 21.53 21.48 21.98 21.88 21.98 8.11 18.98 5.01 18.98 0.04 3.02 0.04 3.02 5.08 0.02 8.11 0.02 24.83 5.03 24.83 6.03 23.83 1.02 23.83 1.02 8.52"/></svg>