<svg width="37" height="38" viewBox="0 0 37 38" fill="none" xmlns="http://www.w3.org/2000/svg">
<g clip-path="url(#clip0_338_185)">
<path d="M12.4369 0.637295C12.1695 0.904678 12.1768 1.17929 12.4658 1.70683C13.5065 3.59296 15.3348 4.85761 17.5822 5.23339L17.8496 5.27675V10.0391V14.8086H16.5055C15.1397 14.8086 14.9518 14.8375 14.8145 15.0976C14.7567 15.206 13.7305 22.5771 13.7305 22.8879C13.7305 22.9168 13.3836 23.0541 12.9572 23.1842C8.18048 24.6367 4.06856 28.0115 1.74161 32.3764C1.26466 33.2725 1.25743 33.6338 1.7127 33.8723C1.82833 33.9373 3.28087 33.959 7.16876 33.959H12.4658L12.7549 34.4142C13.3258 35.3031 14.417 36.2859 15.3709 36.7629C15.884 37.0303 16.5777 37.2687 17.2065 37.3916C18.0231 37.5578 19.5262 37.5144 20.3428 37.2904C21.9037 36.8713 23.3563 35.8307 24.2813 34.4576L24.5775 34.0312H29.9252H35.2729L35.4463 33.8506C35.7426 33.5615 35.692 33.2652 35.1861 32.3402C32.8158 28.0115 29.058 24.8607 24.4258 23.3359C23.3924 22.9891 23.3779 22.9818 23.3346 22.7434C23.3057 22.6133 23.0817 20.8644 22.8287 18.8555C22.3807 15.2566 22.3662 15.206 22.1783 15.0109L21.9832 14.8086H20.5668H19.1504V10.0463V5.28398L19.6779 5.19726C21.752 4.84315 23.4502 3.658 24.5342 1.808C24.8522 1.26601 24.8811 0.933582 24.6354 0.673428L24.4764 0.499992H18.5217C12.7766 0.499992 12.567 0.507217 12.4369 0.637295ZM22.9082 1.86581C22.9082 1.90194 22.6481 2.17656 22.3373 2.47284C20.6391 4.06269 18.117 4.43124 16.0068 3.38339C15.4287 3.09433 14.6699 2.50175 14.2725 2.03202L14.0774 1.80077H18.4928C21.0438 1.80077 22.9082 1.82968 22.9082 1.86581ZM21.2317 16.6297C21.4051 17.8437 21.9832 22.6205 21.9615 22.6494C21.9471 22.6639 21.6074 22.6205 21.21 22.5555C20.2416 22.3965 16.6789 22.3892 15.7395 22.5482C15.1686 22.6494 15.1035 22.6422 15.1035 22.5482C15.1035 22.3965 15.8984 16.3117 15.9346 16.1961C15.9563 16.131 16.5488 16.1094 18.5578 16.1094H21.1594L21.2317 16.6297ZM21.3545 23.9068C23.2334 24.2393 24.6065 24.6873 26.2686 25.5039C29.1953 26.942 31.7174 29.2184 33.4734 32.0078L33.8998 32.6943L28.7834 32.7088C25.9723 32.7232 19.042 32.7016 13.3836 32.6726L3.1002 32.6221L3.50489 31.9717C4.42989 30.4975 5.9836 28.7269 7.26271 27.6935C9.53907 25.8508 12.2201 24.5861 14.9951 24.0225C16.3465 23.7478 16.8957 23.7045 18.7529 23.7334C20.1332 23.7478 20.6608 23.784 21.3545 23.9068ZM22.9082 34.0891C22.9082 34.1685 22.0049 35.0357 21.7086 35.2381C21.3617 35.4838 20.5234 35.8812 20.0537 36.0258C19.4322 36.2209 17.64 36.2209 17.0186 36.0258C15.9996 35.715 14.894 35.0068 14.2725 34.2625L14.0774 34.0312H18.4928C20.9209 34.0312 22.9082 34.0601 22.9082 34.0891Z" fill="white"/>
<path d="M21.3545 23.9068C23.2334 24.2393 24.6065 24.6873 26.2686 25.5039C29.1953 26.942 31.7174 29.2184 33.4734 32.0078L33.8998 32.6943L28.7834 32.7088C25.9723 32.7232 19.042 32.7016 13.3836 32.6726L3.1002 32.6221L3.50489 31.9717C4.42989 30.4975 5.9836 28.7269 7.26271 27.6935C9.53907 25.8508 12.2201 24.5861 14.9951 24.0225C16.3465 23.7478 16.8957 23.7045 18.7529 23.7334C20.1332 23.7478 20.6608 23.784 21.3545 23.9068Z" fill="white"/>
<path d="M21.2317 16.6297C21.4051 17.8437 21.9832 22.6205 21.9615 22.6494C21.9471 22.6639 21.6074 22.6205 21.21 22.5555C20.2416 22.3965 16.6789 22.3892 15.7395 22.5482C15.1686 22.6494 15.1035 22.6422 15.1035 22.5482C15.1035 22.3965 15.8984 16.3117 15.9346 16.1961C15.9563 16.131 16.5488 16.1094 18.5578 16.1094H21.1594L21.2317 16.6297Z" fill="white"/>
<path d="M22.9082 1.86581C22.9082 1.90194 22.6481 2.17656 22.3373 2.47284C20.6391 4.06269 18.117 4.43124 16.0068 3.38339C15.4287 3.09433 14.6699 2.50175 14.2725 2.03202L14.0774 1.80077H18.4928C21.0438 1.80077 22.9082 1.82968 22.9082 1.86581Z" fill="white"/>
<path d="M12.4369 0.637297C12.1695 0.904679 12.1768 1.17929 12.4658 1.70683C13.5065 3.59296 15.3348 4.85761 17.5822 5.23339L17.8496 5.27675V10.0391V14.8086H16.5055C15.1397 14.8086 14.9518 14.8375 14.8145 15.0976C14.7567 15.206 13.7305 22.5771 13.7305 22.8879C13.7305 22.9168 13.3836 23.0541 12.9572 23.1842C8.18048 24.6367 4.06856 28.0115 1.74161 32.3764C1.26466 33.2725 1.25743 33.6338 1.7127 33.8723C1.82833 33.9373 3.28087 33.959 7.16876 33.959H12.4658L12.7549 34.4142C13.3258 35.3031 14.417 36.2859 15.3709 36.7629C15.884 37.0303 16.5777 37.2687 17.2065 37.3916C18.0231 37.5578 19.5262 37.5144 20.3428 37.2904C21.9037 36.8713 23.3563 35.8307 24.2813 34.4576L24.5775 34.0312H29.9252H35.2729L35.4463 33.8506C35.7426 33.5615 35.692 33.2652 35.1861 32.3402C32.8158 28.0115 29.058 24.8607 24.4258 23.3359C23.3924 22.9891 23.3779 22.9818 23.3346 22.7434C23.3057 22.6133 23.0817 20.8644 22.8287 18.8555C22.3807 15.2566 22.3662 15.206 22.1783 15.0109L21.9832 14.8086H20.5668H19.1504V10.0463V5.28398L19.6779 5.19726C21.752 4.84316 23.4502 3.658 24.5342 1.808C24.8522 1.26601 24.8811 0.933586 24.6354 0.673429L24.4764 0.499992H18.5217C12.7766 0.499992 12.567 0.507219 12.4369 0.637297ZM22.9082 1.86581C22.9082 1.90195 22.6481 2.17655 22.3373 2.47284C20.6391 4.06269 18.117 4.43124 16.0068 3.38339C15.4287 3.09433 14.6699 2.50175 14.2725 2.03202L14.0774 1.80077H18.4928C21.0438 1.80077 22.9082 1.82968 22.9082 1.86581ZM21.2317 16.6297C21.4051 17.8437 21.9832 22.6205 21.9615 22.6494C21.9471 22.6639 21.6074 22.6205 21.21 22.5555C20.2416 22.3965 16.6789 22.3892 15.7395 22.5482C15.1686 22.6494 15.1035 22.6422 15.1035 22.5482C15.1035 22.3965 15.8984 16.3117 15.9346 16.1961C15.9563 16.131 16.5488 16.1094 18.5578 16.1094H21.1594L21.2317 16.6297ZM21.3545 23.9068C23.2334 24.2392 24.6065 24.6873 26.2686 25.5039C29.1953 26.942 31.7174 29.2184 33.4734 32.0078L33.8998 32.6943L28.7834 32.7088C25.9723 32.7232 19.042 32.7016 13.3836 32.6726L3.1002 32.6221L3.50489 31.9717C4.42989 30.4975 5.9836 28.7269 7.26271 27.6935C9.53907 25.8508 12.2201 24.5861 14.9951 24.0225C16.3465 23.7478 16.8957 23.7045 18.7529 23.7334C20.1332 23.7478 20.6608 23.784 21.3545 23.9068ZM22.9082 34.0891C22.9082 34.1685 22.0049 35.0357 21.7086 35.2381C21.3617 35.4838 20.5234 35.8812 20.0537 36.0258C19.4322 36.2209 17.64 36.2209 17.0186 36.0258C15.9996 35.715 14.894 35.0068 14.2725 34.2625L14.0774 34.0312H18.4928C20.9209 34.0312 22.9082 34.0601 22.9082 34.0891Z" fill="#1B1B1B" stroke="#1B1B1B"/>
</g>
<defs>
<clipPath id="clip0_338_185">
<rect width="37" height="37" fill="white" transform="translate(0 0.5)"/>
</clipPath>
</defs>
</svg>
