<svg width="30" height="30" data-name="Слой 1" xmlns="http://www.w3.org/2000/svg" viewBox="0 0 26.33 26.33"><defs><style>.cls-1{fill:#ff8a00;}.cls-2{fill:#fff;}</style></defs><title>Монтажная область 1</title><g id="вк"><circle class="cls-1" cx="13.17" cy="13.16" r="13.16"/><path class="cls-2" d="M9.46,9.89a.92.92,0,0,1,.78.28,1.34,1.34,0,0,1,.24.84l0,2.25a.62.62,0,0,1-.4.51.64.64,0,0,1-.6-.16s-.58-.87-.94-1.48-1-2-1-2a.76.76,0,0,0-.2-.37.75.75,0,0,0-.33-.15H4.61a.36.36,0,0,0-.28.16.4.4,0,0,0-.07.33,25.14,25.14,0,0,0,1.45,3,18.47,18.47,0,0,0,2.52,3.42A7.57,7.57,0,0,0,10,17.93a3.56,3.56,0,0,0,1.33.43h1.86a.59.59,0,0,0,.35-.13.87.87,0,0,0,.21-.4v-1a.52.52,0,0,1,.34-.47.51.51,0,0,1,.55,0L16.36,18a1.69,1.69,0,0,0,.35.26.89.89,0,0,0,.3.08h2.57s.59,0,.7-.37a1.16,1.16,0,0,0-.23-.85L18,15a1,1,0,0,1-.29-.6.89.89,0,0,1,.17-.55L19.29,12s.38-.53.64-.92a2.32,2.32,0,0,0,.33-.71.6.6,0,0,0,0-.45c-.11-.23-.44-.21-.44-.21H17.13a.58.58,0,0,0-.32.09.86.86,0,0,0-.21.21L15,13s-.46.78-.87.71-.38-.81-.38-.81v-2.8a1,1,0,0,0-.25-.54.81.81,0,0,0-.56-.26l-2.28,0a1.83,1.83,0,0,0-.67.24A5.53,5.53,0,0,0,9.46,9.89Z"/></g></svg>