<svg width="33" height="33" xmlns="http://www.w3.org/2000/svg" viewBox="0 0 33.65 32.78"><defs><style>.cls-1{fill:#1b1b1b;}</style></defs><path class="cls-1" d="M31.35,23.28H6.62a1,1,0,1,1,0-2H31.35v-2H6.62a3,3,0,1,0,0,6H31.35Z"/><rect class="cls-1" x="6.01" y="5.54" width="27.63" height="1.34"/><rect class="cls-1" x="1.01" y="12.78" width="13.58" height="1.34" transform="translate(19.76 3.51) rotate(80.34)"/><rect class="cls-1" x="25.03" y="12.78" width="13.58" height="1.34" transform="translate(50.42 -15.66) rotate(99.66)"/><path class="cls-1" d="M12.35,27.32a1.73,1.73,0,1,1-1.83,1.73,1.79,1.79,0,0,1,1.83-1.73m0-2a3.73,3.73,0,1,0,3.84,3.73,3.78,3.78,0,0,0-3.84-3.73Z"/><path class="cls-1" d="M26.35,27.32a1.73,1.73,0,1,1-1.83,1.73,1.79,1.79,0,0,1,1.83-1.73m0-2a3.73,3.73,0,1,0,3.84,3.73,3.78,3.78,0,0,0-3.84-3.73Z"/><path class="cls-1" d="M1,0H0V2H1A5,5,0,0,1,6,6.72l.27,0H8A7.05,7.05,0,0,0,1,0Z"/></svg>