<svg id="Слой_1" data-name="Слой 1" xmlns="http://www.w3.org/2000/svg" viewBox="0 0 57.32 72.33"><defs><style>.cls-1{fill:none;stroke:#ff8a00;stroke-width:2px;}.cls-2{fill:#ff8a00;}</style></defs><title>Монтажная область 1</title><path class="cls-1" d="M13.57,10.79S14.23,6.2,18.15,5s3.42-3.83,3.42-3.83l14.58.08S42.73,4,43.9,9.7l.17,8.92,1,.92.08,4.66-.75,1-2.67.59S40.07,35,35.23,36.45,31.15,37.54,29,37.62a22.57,22.57,0,0,1-5.41-.83,12.78,12.78,0,0,1-7.67-8.5l-.58-1.75L13.15,24.7,12.57,24l-.09-4.17L13.9,18.7,14,14.45"/><polyline class="cls-1" points="13.36 19.58 20.44 19.58 20.44 10.16 37.32 10.16 37.32 19.41 44.27 19.41"/><polygon class="cls-2" points="22.1 35.62 20.1 35.62 20.1 42.33 22.1 42.33 22.1 35.62 22.1 35.62"/><polygon class="cls-2" points="37.1 35.62 35.1 35.62 35.1 42.54 37.1 42.54 37.1 35.62 37.1 35.62"/><path class="cls-1" d="M20.94,42.49s6.46,4.42,6.67,5.71-1.92,3.59-1.92,3.59a3.81,3.81,0,0,1-4.62-.42c-2.38-2-4.84-4.63-5-5.42a11.49,11.49,0,0,1,.7-3.33Z"/><path class="cls-1" d="M35.73,42.49s-6.46,4.42-6.67,5.71S31,51.79,31,51.79a3.81,3.81,0,0,0,4.62-.42c2.38-2,4.83-4.63,5-5.42a11.43,11.43,0,0,0-.71-3.33Z"/><polygon class="cls-2" points="31.98 53.37 25.15 53.37 25.15 55.41 31.98 55.41 31.98 53.37 31.98 53.37"/><polygon class="cls-2" points="31.9 54 30.46 54.17 32.47 71.21 33.92 71.03 31.9 54 31.9 54"/><polygon class="cls-2" points="25.21 54 23.19 71.03 24.64 71.21 26.66 54.17 25.21 54 25.21 54"/><polygon class="cls-2" points="11.1 62.37 9.1 62.37 9.1 70.78 11.1 70.78 11.1 62.37 11.1 62.37"/><polygon class="cls-2" points="48.1 62.37 46.1 62.37 46.1 70.78 48.1 70.78 48.1 62.37 48.1 62.37"/><path class="cls-2" d="M41.36,41.37H35.13v2h6.23A13.88,13.88,0,0,1,55.23,57.24v9.17a3.88,3.88,0,0,1-3.87,3.88H5.94a3.88,3.88,0,0,1-3.87-3.88V57.24A13.88,13.88,0,0,1,15.94,43.37H22.1v-2H15.94A15.87,15.87,0,0,0,.07,57.24v9.17a5.87,5.87,0,0,0,5.87,5.88H51.36a5.87,5.87,0,0,0,5.87-5.88V57.24A15.87,15.87,0,0,0,41.36,41.37Z"/></svg>