<svg id="Слой_1" data-name="Слой 1" xmlns="http://www.w3.org/2000/svg" viewBox="0 0 81.29 70.45"><defs><style>.cls-1{fill:#ff8a00;}</style></defs><title>Монтажная область 1</title><path class="cls-1" d="M13.21,2a.36.36,0,0,1,.35.36V15.91a.35.35,0,0,1-.35.35h-2a.36.36,0,0,1-.36-.35V2.37A.36.36,0,0,1,11.17,2h2m0-2h-2A2.36,2.36,0,0,0,8.81,2.37V15.91a2.36,2.36,0,0,0,2.36,2.35h2a2.35,2.35,0,0,0,2.35-2.35V2.37A2.36,2.36,0,0,0,13.21,0Z"/><path class="cls-1" d="M60.58,2a.36.36,0,0,1,.36.36V15.91a.36.36,0,0,1-.36.35h-2a.35.35,0,0,1-.35-.35V2.37A.36.36,0,0,1,58.54,2h2m0-2h-2a2.36,2.36,0,0,0-2.35,2.36V15.91a2.35,2.35,0,0,0,2.35,2.35h2a2.36,2.36,0,0,0,2.36-2.35V2.37A2.36,2.36,0,0,0,60.58,0Z"/><rect class="cls-1" x="1.27" y="22.12" width="69" height="2"/><rect class="cls-1" x="1.27" y="36.74" width="37.44" height="2"/><rect class="cls-1" x="1.24" y="50.33" width="37.44" height="2"/><rect class="cls-1" x="-5.1" y="42.55" width="39.31" height="2" transform="translate(-29 58.11) rotate(-90)"/><rect class="cls-1" x="9.18" y="42.55" width="39.31" height="2" transform="translate(-14.72 72.39) rotate(-90)"/><rect class="cls-1" x="39.72" y="25.78" width="5.76" height="2" transform="translate(15.82 69.38) rotate(-90)"/><rect class="cls-1" x="54.3" y="25.82" width="5.76" height="2" transform="translate(30.36 84) rotate(-90)"/><polygon class="cls-1" points="62.37 9.6 62.37 11.6 69.73 11.6 69.73 29.68 71.73 29.68 71.73 9.6 62.37 9.6"/><rect class="cls-1" x="14.99" y="9.59" width="42.16" height="2"/><polygon class="cls-1" points="2.06 11.6 9.55 11.6 9.55 9.6 0.06 9.6 0.06 64.59 38.77 64.59 38.77 62.59 2.06 62.59 2.06 11.6"/><path class="cls-1" d="M61.4,32.68A17.88,17.88,0,1,1,43.52,50.55,17.89,17.89,0,0,1,61.4,32.68m0-2A19.88,19.88,0,1,0,81.27,50.55,19.88,19.88,0,0,0,61.4,30.68Z"/><path class="cls-1" d="M61.4,38.68A11.88,11.88,0,1,1,49.52,50.55,11.89,11.89,0,0,1,61.4,38.68m0-2A13.88,13.88,0,1,0,75.27,50.55,13.87,13.87,0,0,0,61.4,36.68Z"/><rect class="cls-1" x="59.27" y="41.43" width="1.44" height="12.75"/><rect class="cls-1" x="63.93" y="48.08" width="1.44" height="10.75" transform="translate(11.19 118.11) rotate(-90)"/></svg>