<svg id="Слой_1" data-name="Слой 1" xmlns="http://www.w3.org/2000/svg" viewBox="0 0 90.88 70.97"><defs><style>.cls-1{fill:#ff8a00;}</style></defs><title>Монтажная область 1</title><path class="cls-1" d="M48.21,0h-44A4.18,4.18,0,0,0,0,4.23V42.66H2V4.23A2.19,2.19,0,0,1,4.21,2h44A2.19,2.19,0,0,1,50.4,4.23v62.5a2.19,2.19,0,0,1-2.19,2.18h-44A2.19,2.19,0,0,1,2,66.73V52.79H0V66.73a4.18,4.18,0,0,0,4.18,4.18h44a4.18,4.18,0,0,0,4.19-4.18V4.23A4.18,4.18,0,0,0,48.21,0Z"/><rect class="cls-1" x="12.69" y="1.79" width="2.08" height="67.75"/><rect class="cls-1" x="18.08" y="6.79" width="2.08" height="56.42"/><path class="cls-1" d="M70.61,11.87c10.76,0,18.25,4.39,18.25,8.33s-7.49,8.34-18.25,8.34S52.36,24.15,52.36,20.2s7.5-8.33,18.25-8.33m0-2c-11.18,0-20.25,4.63-20.25,10.33s9.07,10.34,20.25,10.34S90.86,25.91,90.86,20.2,81.79,9.87,70.61,9.87Z"/><path class="cls-1" d="M86.78,25l-1.35,1.5c2.18,1.43,3.43,3.1,3.43,4.69,0,3.95-7.5,8.34-18.25,8.34S52.36,35.15,52.36,31.2c0-1.63,1.31-3.34,3.59-4.79L54.4,25c-2.53,1.72-4,3.86-4,6.17,0,5.71,9.07,10.34,20.25,10.34S90.86,36.91,90.86,31.2C90.86,28.88,89.33,26.73,86.78,25Z"/><path class="cls-1" d="M86.78,36.23l-1.35,1.51c2.18,1.42,3.43,3.09,3.43,4.69,0,3.94-7.5,8.33-18.25,8.33s-18.25-4.39-18.25-8.33c0-1.64,1.31-3.35,3.59-4.79L54.4,36.25c-2.53,1.73-4,3.86-4,6.18,0,5.71,9.07,10.33,20.25,10.33s20.25-4.62,20.25-10.33C90.86,40.1,89.33,38,86.78,36.23Z"/><path class="cls-1" d="M86.78,47.43l-1.35,1.51c2.18,1.42,3.43,3.09,3.43,4.69,0,3.94-7.5,8.33-18.25,8.33s-18.25-4.39-18.25-8.33c0-1.64,1.31-3.35,3.59-4.79L54.4,47.45c-2.53,1.73-4,3.86-4,6.18C50.36,59.34,59.43,64,70.61,64s20.25-4.62,20.25-10.33C90.86,51.3,89.33,49.16,86.78,47.43Z"/><path class="cls-1" d="M89,57.92a6.31,6.31,0,0,0,1.81-3.79h0V19.89a10.23,10.23,0,0,0-.63-2.1,6.05,6.05,0,0,0-.69-1.25H87.65V59.22A7.89,7.89,0,0,0,89,57.92Z"/></svg>