<svg width="16" height="20" xmlns="http://www.w3.org/2000/svg" viewBox="0 0 16.72 16.29"><defs><style>.cls-1{fill:#ff8a00;}</style></defs><title>Монтажная область 1</title><path class="cls-1" d="M16.59,15.51H11.15v-1h4.44V11.23H11.72v1.06H6.1a1.23,1.23,0,0,0-.42,1.1,1.31,1.31,0,0,0,.38.9h3v1l-3.32,0c-.1,0-.93-.36-1.08-1.76a2.27,2.27,0,0,1,1-2.14l.12-.07h4.93V10.23h5.87Z"/><rect class="cls-1" x="13.18" y="12.76" width="1" height="1.06"/><path class="cls-1" d="M5.29,9h3.4L11,8.2V8H5l-.11.06C4.44,8.37.35,10.75.18,13.32V16.2H5.06v-1H1.18V13.35C1.29,11.71,4.08,9.74,5.29,9Z"/><path class="cls-1" d="M8.56,1a3.5,3.5,0,1,1-3.5,3.5A3.5,3.5,0,0,1,8.56,1m0-1a4.5,4.5,0,1,0,4.5,4.5A4.5,4.5,0,0,0,8.56,0Z"/></svg>