<svg width="193" height="116" version="1.1" id="Слой_1__x28_копия_x29_"
	 xmlns="http://www.w3.org/2000/svg" xmlns:xlink="http://www.w3.org/1999/xlink" x="0px" y="0px" viewBox="0 0 610.4 364.9"
	 style="enable-background:new 0 0 610.4 364.9;" xml:space="preserve">
<style type="text/css">
	.st0{fill:#C67647;}
	.st1{fill:url(#SVGID_1_);}
	.st2{fill:#704D38;}
	.st3{fill:url(#SVGID_2_);}
	.st4{fill:url(#SVGID_3_);}
	.st5{fill:#DFD088;}
	.st6{fill:url(#SVGID_4_);}
	.st7{fill:#FFFFFF;}
	.st8{fill:#E18C44;}
	.st9{fill:url(#SVGID_5_);}
	.st10{opacity:0.84;fill:url(#SVGID_6_);}
</style>
<rect x="9.9" y="158.8" class="st0" width="58" height="9.5"/>
<rect x="-62.2" y="231.1" transform="matrix(1.693052e-11 -1 1 1.693052e-11 -221.1986 250.5293)" class="st0" width="153.8" height="9.5"/>
<linearGradient id="SVGID_1_" gradientUnits="userSpaceOnUse" x1="61.3909" y1="87.6899" x2="230.3" y2="87.6899">
	<stop  offset="0" style="stop-color:#C67647"/>
	<stop  offset="1" style="stop-color:#D38A50"/>
</linearGradient>
<polygon class="st1" points="230.3,13.9 67.9,168.4 61.4,161.5 223.8,7 "/>
<rect x="287.4" y="4.5" class="st2" width="14.1" height="42.1"/>
<linearGradient id="SVGID_2_" gradientUnits="userSpaceOnUse" x1="290.0087" y1="67.4074" x2="332.7632" y2="12.2801" gradientTransform="matrix(0.9775 -0.2621 7.907205e-03 1.0209 6.0815 72.7016)">
	<stop  offset="0" style="stop-color:#704D38"/>
	<stop  offset="0.1633" style="stop-color:#714D38"/>
	<stop  offset="0.2573" style="stop-color:#74503A"/>
	<stop  offset="0.3337" style="stop-color:#79553E"/>
	<stop  offset="0.4006" style="stop-color:#815C44"/>
	<stop  offset="0.4614" style="stop-color:#8C684F"/>
	<stop  offset="0.5177" style="stop-color:#9A785F"/>
	<stop  offset="0.5706" style="stop-color:#AE9078"/>
	<stop  offset="0.6208" style="stop-color:#C9B3A0"/>
	<stop  offset="0.6671" style="stop-color:#E9E0D9"/>
	<stop  offset="0.6872" style="stop-color:#FFFFFF"/>
	<stop  offset="0.7014" style="stop-color:#F5F3E2"/>
	<stop  offset="0.7255" style="stop-color:#EAE5C3"/>
	<stop  offset="0.7528" style="stop-color:#E0D9AA"/>
	<stop  offset="0.7843" style="stop-color:#D8D198"/>
	<stop  offset="0.8224" style="stop-color:#D3CB8D"/>
	<stop  offset="0.8741" style="stop-color:#CFC887"/>
	<stop  offset="1" style="stop-color:#CFC785"/>
</linearGradient>
<polygon class="st3" points="323.5,54.8 300.3,51.1 300.7,4.5 323.9,8.2 "/>
<linearGradient id="SVGID_3_" gradientUnits="userSpaceOnUse" x1="223.6758" y1="103.765" x2="507.8424" y2="103.765">
	<stop  offset="0" style="stop-color:#D98B4B"/>
	<stop  offset="1" style="stop-color:#E7B74E"/>
</linearGradient>
<polygon class="st4" points="223.7,7 367.9,176.8 357.2,197.3 431.2,200.5 507.8,73.3 435.2,65.3 412,104.8 379.8,65.7 "/>
<rect x="569.8" y="182.3" class="st5" width="29.6" height="4.4"/>
<rect x="567.7" y="209.7" transform="matrix(2.253936e-11 -1 1 2.253936e-11 385.3134 809.0961)" class="st5" width="58.9" height="4.4"/>
<rect x="474" y="127.6" transform="matrix(0.5195 0.8545 -0.8545 0.5195 370.1193 -397.6289)" class="st5" width="129.2" height="5.3"/>
<linearGradient id="SVGID_4_" gradientUnits="userSpaceOnUse" x1="85.9258" y1="101.39" x2="341.6758" y2="101.39">
	<stop  offset="0" style="stop-color:#E6E6E6"/>
	<stop  offset="0.4874" style="stop-color:#E8E8E8"/>
	<stop  offset="0.7675" style="stop-color:#F1F1F1"/>
	<stop  offset="0.9947" style="stop-color:#FFFFFF"/>
	<stop  offset="1" style="stop-color:#FFFFFF"/>
</linearGradient>
<polygon class="st6" points="111.2,169.5 85.9,169.5 227.7,33.3 341.7,162.8 230.2,57.5 "/>
<polygon class="st7" points="460,177.2 450.3,177 503,91.3 551.5,164.8 504.3,105.8 "/>
<rect x="493.6" y="149.3" class="st7" width="10.3" height="17.6"/>
<rect x="507.2" y="149.3" class="st7" width="10.3" height="17.6"/>
<path class="st7" d="M503.9,147.6h-10.3v-14.5c0-1.7,1.4-3.1,3.1-3.1h7.2V147.6z"/>
<path class="st7" d="M507.2,147.6h10.3v-14.5c0-1.7-1.4-3.1-3.1-3.1h-7.2V147.6z"/>
<rect x="494.7" y="149.3" class="st5" width="10.3" height="17.6"/>
<rect x="508.3" y="149.3" class="st5" width="10.3" height="17.6"/>
<path class="st5" d="M505,147.6h-10.3v-14.5c0-1.7,1.4-3.1,3.1-3.1h7.2V147.6z"/>
<path class="st5" d="M508.3,147.6h10.3v-14.5c0-1.7-1.4-3.1-3.1-3.1h-7.2V147.6z"/>
<path class="st5" d="M235.2,128.2h21.5v-22.7c0-5-4.1-9.1-9.1-9.1h-12.4V128.2z"/>
<rect x="206.2" y="134.1" class="st5" width="21.5" height="31.9"/>
<rect x="235.2" y="134.1" class="st5" width="21.5" height="31.9"/>
<path class="st5" d="M227.7,128.2h-21.5v-22.7c0-5,4.1-9.1,9.1-9.1h12.4V128.2z"/>
<rect x="232.7" y="134.1" class="st8" width="21.5" height="31.9"/>
<rect x="204" y="134.1" class="st8" width="21.5" height="31.9"/>
<path class="st8" d="M233,128.2h21.5v-22.7c0-5-4.1-9.1-9.1-9.1H233V128.2z"/>
<path class="st8" d="M225.5,128.2H204v-22.7c0-5,4.1-9.1,9.1-9.1h12.4V128.2z"/>
<g>
	<path class="st7" d="M109,284.5h-8.1v-28.7h-16v28.7h-8.1v-35.4H109V284.5z"/>
	<path class="st7" d="M149.1,284.5H141v-28.7h-12.1l-0.3,7.4c-0.2,5-0.6,9.1-1.2,12.2c-0.6,3.1-1.7,5.5-3.2,7.2
		c-1.5,1.7-3.6,2.5-6.3,2.5c-1.1,0-2.5-0.2-4-0.6l0.5-6.9c0.4,0.1,0.9,0.2,1.5,0.2c2,0,3.3-1.2,4.1-3.5c0.8-2.3,1.3-5.9,1.5-10.9
		l0.5-14.4h27.2V284.5z"/>
	<path class="st7" d="M166.1,249.1v23.1l16.9-23.1h7.7v35.4h-8.1v-23l-16.9,23H158v-35.4H166.1z"/>
	<path class="st7" d="M215.2,255.8v28.7h-8.1v-28.7h-11.3v-6.7h30.7v6.7H215.2z"/>
	<path class="st7" d="M239.8,270.3v14.3h-8.1v-35.4h8.1v14.3h5.9l9.3-14.3h8.7L252,266.2l11.9,18.3h-9.3l-9.2-14.3H239.8z"/>
	<path class="st7" d="M297.9,256.1c1.3,2.5,2,5.5,2,9.1v19.4h-8.2V276h-16.2v8.5h-8.1v-19.4c0-3.5,0.7-6.6,2-9.1
		c1.3-2.5,3.2-4.4,5.7-5.7c2.4-1.3,5.3-1.9,8.6-1.9c3.3,0,6.1,0.6,8.6,1.9C294.7,251.7,296.6,253.6,297.9,256.1z M291.7,264.4
		c0-2.9-0.7-5.2-2.2-6.7c-1.5-1.5-3.4-2.3-5.9-2.3c-2.5,0-4.5,0.8-5.9,2.3s-2.2,3.7-2.2,6.7v5.1h16.2V264.4z"/>
	<path class="st7" d="M354.3,284.5h-8.2V270H330v14.5h-8.2v-35.4h8.2v14h16.1v-14h8.2V284.5z"/>
	<path class="st7" d="M393.9,256.1c1.3,2.5,2,5.5,2,9.1v19.4h-8.2V276h-16.2v8.5h-8.1v-19.4c0-3.5,0.7-6.6,2-9.1
		c1.3-2.5,3.2-4.4,5.7-5.7c2.4-1.3,5.3-1.9,8.5-1.9s6.1,0.6,8.6,1.9C390.7,251.7,392.6,253.6,393.9,256.1z M387.8,264.4
		c0-2.9-0.7-5.2-2.2-6.7s-3.4-2.3-5.9-2.3c-2.5,0-4.5,0.8-5.9,2.3s-2.2,3.7-2.2,6.7v5.1h16.2V264.4z"/>
	<path class="st7" d="M454.4,291.9h-7.6v-7.3h-25v7.3h-7.6l0.1-14h1.4c2.1-0.1,3.6-1.6,4.5-4.7c0.9-3,1.4-7.4,1.6-13l0.4-11.1h27.2
		v28.7h5V291.9z M425.5,277.8h15.8v-22.1h-12.1l-0.2,5.2c-0.2,4.2-0.5,7.7-1.1,10.6C427.4,274.4,426.6,276.5,425.5,277.8z"/>
	<path class="st7" d="M459.9,276.2c-1.7-2.8-2.5-5.9-2.5-9.4c0-3.5,0.8-6.6,2.5-9.4c1.7-2.8,4-5,6.9-6.6s6.3-2.4,9.9-2.4
		s7,0.8,9.9,2.4s5.2,3.8,6.9,6.6c1.7,2.8,2.5,5.9,2.5,9.4c0,3.5-0.8,6.6-2.5,9.4c-1.7,2.8-4,5-6.9,6.6c-2.9,1.6-6.2,2.4-9.9,2.4
		s-7-0.8-9.9-2.4C463.9,281.2,461.6,279,459.9,276.2z M486.4,272.7c1-1.7,1.4-3.7,1.4-5.9s-0.5-4.1-1.4-5.9c-1-1.7-2.3-3.1-4-4
		c-1.7-1-3.6-1.4-5.7-1.4s-4,0.5-5.7,1.4c-1.7,1-3,2.3-4,4c-1,1.7-1.4,3.7-1.4,5.9s0.5,4.1,1.4,5.9c1,1.7,2.3,3.1,4,4
		c1.7,1,3.6,1.4,5.7,1.4s4-0.5,5.7-1.4C484.1,275.7,485.4,274.4,486.4,272.7z"/>
	<path class="st7" d="M534.6,263.3l-10.4,17.5h-3.6l-10.4-17v20.8h-7.7v-35.4h6.8l13.3,22l13.1-22h6.8l0,35.4h-7.7L534.6,263.3z"/>
</g>
<linearGradient id="SVGID_5_" gradientUnits="userSpaceOnUse" x1="75.8007" y1="311.5463" x2="547.8424" y2="311.5463">
	<stop  offset="0" style="stop-color:#C67647"/>
	<stop  offset="1" style="stop-color:#DACD89"/>
</linearGradient>
<rect x="75.8" y="310" class="st9" width="472" height="3.1"/>
<g>
	<path class="st7" d="M165.5,340.1c0.8,1.3,1.1,2.9,1.1,4.6c0,1.7-0.4,3.3-1.1,4.6s-1.8,2.4-3.1,3.1c-1.3,0.7-2.8,1.1-4.5,1.1
		c-1.4,0-2.7-0.3-3.8-0.9c-1.1-0.6-2.1-1.4-2.8-2.6v9.7H149V336h2.3v3.4c0.7-1.1,1.6-2,2.8-2.6s2.5-0.9,3.9-0.9
		c1.6,0,3.1,0.4,4.4,1.1C163.7,337.7,164.7,338.7,165.5,340.1z M163.4,348.2c0.6-1,0.8-2.2,0.8-3.5c0-1.3-0.3-2.5-0.8-3.5
		s-1.3-1.8-2.3-2.4c-1-0.6-2.1-0.9-3.3-0.9c-1.2,0-2.3,0.3-3.3,0.9c-1,0.6-1.8,1.4-2.3,2.4s-0.8,2.2-0.8,3.5c0,1.3,0.3,2.5,0.8,3.5
		c0.6,1,1.3,1.8,2.3,2.4c1,0.6,2.1,0.8,3.3,0.8c1.2,0,2.3-0.3,3.3-0.8C162.1,350.1,162.8,349.3,163.4,348.2z"/>
	<path class="st7" d="M178.6,348.6v-19.7h2.4v19.5c0,1,0.2,1.8,0.7,2.4c0.5,0.5,1.2,0.8,2.2,0.8c0.6,0,1.1-0.1,1.6-0.3l0.2,2
		c-0.7,0.2-1.4,0.4-2.1,0.4c-1.6,0-2.8-0.4-3.6-1.3C179,351.3,178.6,350.1,178.6,348.6z"/>
	<path class="st7" d="M195.5,330.5c0-0.4,0.2-0.8,0.5-1.2c0.3-0.3,0.7-0.5,1.2-0.5s0.9,0.2,1.2,0.5s0.5,0.7,0.5,1.1
		c0,0.5-0.2,0.9-0.5,1.2s-0.7,0.5-1.2,0.5s-0.9-0.2-1.2-0.5C195.6,331.3,195.5,330.9,195.5,330.5z M198.4,336v17.4H196V336H198.4z"
		/>
	<path class="st7" d="M219.6,353.2c-0.7,0.2-1.3,0.3-2,0.3c-1.6,0-2.9-0.4-3.8-1.3s-1.3-2.1-1.3-3.7V338h-3.1v-2h3.1v-3.8h2.4v3.8
		h5.3v2h-5.3v10.4c0,1,0.3,1.8,0.8,2.4c0.5,0.5,1.3,0.8,2.2,0.8c0.5,0,1-0.1,1.4-0.2c0.5-0.2,0.8-0.4,1.2-0.7l0.8,1.7
		C220.8,352.7,220.3,353,219.6,353.2z"/>
	<path class="st7" d="M235.1,348.4v5h-2.4v-24.6h2.4v16.7l10.4-9.5h2.9l-7.5,7.1l8.1,10.3h-2.9l-7-8.7L235.1,348.4z"/>
	<path class="st7" d="M272.6,342.6v10.8h-2.3v-2.7c-0.5,0.9-1.3,1.6-2.3,2.1s-2.2,0.8-3.7,0.8c-1.9,0-3.5-0.5-4.6-1.4
		c-1.1-0.9-1.7-2.2-1.7-3.7c0-1.5,0.5-2.7,1.6-3.6c1.1-0.9,2.8-1.4,5.1-1.4h5.5v-1.1c0-1.5-0.4-2.6-1.3-3.4
		c-0.8-0.8-2.1-1.2-3.7-1.2c-1.1,0-2.2,0.2-3.2,0.5s-1.9,0.9-2.6,1.5l-1.1-1.8c0.9-0.8,1.9-1.3,3.2-1.7c1.2-0.4,2.5-0.6,3.9-0.6
		c2.3,0,4,0.6,5.2,1.7C272,338.7,272.6,340.4,272.6,342.6z M270.2,348.2v-2.8h-5.5c-3,0-4.5,1-4.5,3.1c0,1,0.4,1.8,1.2,2.4
		c0.8,0.6,1.9,0.9,3.2,0.9c1.3,0,2.5-0.3,3.4-0.9S269.8,349.3,270.2,348.2z"/>
	<path class="st7" d="M301.2,343.3v10.1h-2.4v-9.9c0-1.8-0.5-3.2-1.4-4.1s-2.2-1.4-3.9-1.4c-1.9,0-3.4,0.6-4.5,1.7s-1.6,2.7-1.6,4.6
		v9.1h-2.4V336h2.3v3.2c0.6-1.1,1.5-1.9,2.7-2.5s2.5-0.9,4-0.9c2.2,0,3.9,0.6,5.2,1.9C300.5,339,301.2,340.9,301.2,343.3z"/>
	<path class="st7" d="M327.9,342.6v10.8h-2.3v-2.7c-0.5,0.9-1.3,1.6-2.3,2.1s-2.2,0.8-3.7,0.8c-1.9,0-3.5-0.5-4.6-1.4
		c-1.1-0.9-1.7-2.2-1.7-3.7c0-1.5,0.5-2.7,1.6-3.6c1.1-0.9,2.8-1.4,5.1-1.4h5.5v-1.1c0-1.5-0.4-2.6-1.3-3.4
		c-0.8-0.8-2.1-1.2-3.7-1.2c-1.1,0-2.2,0.2-3.2,0.5s-1.9,0.9-2.6,1.5l-1.1-1.8c0.9-0.8,1.9-1.3,3.2-1.7c1.2-0.4,2.5-0.6,3.9-0.6
		c2.3,0,4,0.6,5.2,1.7C327.3,338.7,327.9,340.4,327.9,342.6z M325.5,348.2v-2.8h-5.5c-3,0-4.5,1-4.5,3.1c0,1,0.4,1.8,1.2,2.4
		c0.8,0.6,1.9,0.9,3.2,0.9c1.3,0,2.5-0.3,3.4-0.9S325.1,349.3,325.5,348.2z"/>
	<path class="st7" d="M356.4,353.4h-2.3v-3.4c-0.7,1.2-1.6,2.1-2.8,2.7s-2.5,0.9-3.9,0.9c-1.6,0-3.1-0.4-4.4-1.1
		c-1.3-0.8-2.4-1.8-3.1-3.1c-0.8-1.3-1.1-2.9-1.1-4.6c0-1.7,0.4-3.3,1.1-4.6c0.8-1.3,1.8-2.4,3.1-3.1c1.3-0.7,2.8-1.1,4.4-1.1
		c1.4,0,2.7,0.3,3.8,0.9s2.1,1.4,2.8,2.6v-10.5h2.4V353.4z M353.2,348.2c0.6-1,0.8-2.2,0.8-3.5c0-1.3-0.3-2.5-0.8-3.5
		c-0.6-1-1.3-1.8-2.3-2.4c-1-0.6-2.1-0.8-3.3-0.8c-1.2,0-2.3,0.3-3.3,0.8c-1,0.6-1.8,1.4-2.3,2.4c-0.6,1-0.8,2.2-0.8,3.5
		c0,1.3,0.3,2.5,0.8,3.5c0.6,1,1.3,1.8,2.3,2.4c1,0.6,2.1,0.8,3.3,0.8c1.2,0,2.3-0.3,3.3-0.8C351.9,350.1,352.7,349.3,353.2,348.2z"
		/>
	<path class="st7" d="M369.5,349.2c-0.8-1.3-1.2-2.9-1.2-4.6c0-1.7,0.4-3.2,1.2-4.6s1.8-2.4,3.2-3.1c1.3-0.8,2.9-1.1,4.5-1.1
		s3.2,0.4,4.5,1.1c1.3,0.8,2.4,1.8,3.2,3.1s1.1,2.9,1.1,4.6c0,1.7-0.4,3.2-1.1,4.6s-1.8,2.4-3.2,3.2s-2.9,1.1-4.5,1.1
		s-3.2-0.4-4.5-1.1S370.3,350.6,369.5,349.2z M382.9,348.2c0.6-1,0.8-2.2,0.8-3.5c0-1.3-0.3-2.5-0.8-3.5c-0.6-1-1.3-1.8-2.3-2.4
		c-1-0.6-2.1-0.8-3.3-0.8s-2.3,0.3-3.3,0.8c-1,0.6-1.8,1.4-2.3,2.4c-0.6,1-0.8,2.2-0.8,3.5c0,1.3,0.3,2.5,0.8,3.5
		c0.6,1,1.3,1.8,2.3,2.4c1,0.6,2.1,0.8,3.3,0.8s2.3-0.3,3.3-0.8C381.6,350.1,382.3,349.3,382.9,348.2z"/>
	<path class="st7" d="M426.8,343.3v10.1h-2.4v-9.9c0-1.8-0.4-3.2-1.3-4.1s-2.1-1.4-3.7-1.4c-1.8,0-3.2,0.6-4.3,1.7
		c-1,1.1-1.6,2.7-1.6,4.6v9.1h-2.4v-9.9c0-1.8-0.4-3.2-1.3-4.1s-2.1-1.4-3.7-1.4c-1.8,0-3.2,0.6-4.3,1.7c-1,1.1-1.6,2.7-1.6,4.6v9.1
		h-2.4V336h2.3v3.2c0.6-1.1,1.5-1.9,2.6-2.5s2.4-0.9,3.8-0.9c1.5,0,2.7,0.3,3.8,0.9c1.1,0.6,1.9,1.5,2.4,2.7c0.6-1.1,1.6-2,2.8-2.7
		s2.6-1,4.1-1c2.2,0,3.9,0.6,5.2,1.9C426.2,339,426.8,340.8,426.8,343.3z"/>
	<path class="st7" d="M438.9,351.7c0-0.5,0.2-0.9,0.5-1.3c0.3-0.3,0.8-0.5,1.2-0.5c0.5,0,0.9,0.2,1.3,0.5s0.5,0.8,0.5,1.3
		s-0.2,0.9-0.5,1.3s-0.8,0.5-1.3,0.5c-0.5,0-0.9-0.2-1.2-0.5C439.1,352.7,438.9,352.2,438.9,351.7z"/>
	<path class="st7" d="M463.4,335.8v2.3l-0.6,0c-1.8,0-3.3,0.6-4.3,1.7c-1,1.1-1.6,2.7-1.6,4.7v8.9h-2.4V336h2.3v3.4
		c0.6-1.2,1.4-2.1,2.5-2.6S461.8,335.8,463.4,335.8z"/>
	<path class="st7" d="M490.8,353.4h-2.3v-3.2c-0.6,1.1-1.5,1.9-2.5,2.5c-1.1,0.6-2.3,0.9-3.7,0.9c-2.3,0-4.1-0.6-5.4-1.9
		s-2-3.1-2-5.6V336h2.4v9.9c0,1.8,0.5,3.2,1.4,4.2c0.9,0.9,2.2,1.4,3.9,1.4c1.8,0,3.3-0.6,4.3-1.7c1.1-1.1,1.6-2.7,1.6-4.7V336h2.4
		V353.4z"/>
</g>
<linearGradient id="SVGID_6_" gradientUnits="userSpaceOnUse" x1="408.7669" y1="119.9088" x2="439.8833" y2="41.9461">
	<stop  offset="0" style="stop-color:#EBE88C;stop-opacity:0"/>
	<stop  offset="0.1692" style="stop-color:#E4D487"/>
	<stop  offset="0.3156" style="stop-color:#E5D488"/>
	<stop  offset="0.3998" style="stop-color:#E6D68E"/>
	<stop  offset="0.4683" style="stop-color:#E8DA97"/>
	<stop  offset="0.5282" style="stop-color:#EBDFA5"/>
	<stop  offset="0.5827" style="stop-color:#F0E6B9"/>
	<stop  offset="0.6331" style="stop-color:#F5EFD4"/>
	<stop  offset="0.6796" style="stop-color:#FDFCF7"/>
	<stop  offset="0.6872" style="stop-color:#FFFFFF"/>
	<stop  offset="0.6992" style="stop-color:#F9F6E7"/>
	<stop  offset="0.7197" style="stop-color:#F3EBCA"/>
	<stop  offset="0.7426" style="stop-color:#EEE3B2"/>
	<stop  offset="0.7682" style="stop-color:#EBDDA1"/>
	<stop  offset="0.7977" style="stop-color:#E8D995"/>
	<stop  offset="0.8335" style="stop-color:#E6D68D"/>
	<stop  offset="0.882" style="stop-color:#E4D488"/>
	<stop  offset="1" style="stop-color:#E4D487"/>
</linearGradient>
<polygon class="st10" points="353.9,55.9 353.5,100.7 465.1,144.3 507.7,73.4 435.7,65.4 412,104.8 379.9,65.7 "/>
</svg>
