<svg width="34" height="34" xmlns="http://www.w3.org/2000/svg" viewBox="0 0 31.52 31.5"><defs><style>.cls-1{fill:#ff8a00;}</style></defs><title>Монтажная область 1</title><path class="cls-1" d="M15.78,1.43l5.46,5.46-5.46,5.46L10.31,6.89l5.47-5.46m0-1.42L8.9,6.89l6.88,6.87,6.87-6.87L15.78,0Z"/><path class="cls-1" d="M6.9,10.29l5.46,5.46L6.9,21.21,1.44,15.75,6.9,10.29m0-1.41L0,15.75,6.9,22.63l6.87-6.88L6.9,8.88Z"/><path class="cls-1" d="M15.78,19.16l5.46,5.46-5.46,5.46-5.46-5.46,5.46-5.46m0-1.41L8.9,24.62l6.88,6.88,6.87-6.88-6.87-6.87Z"/><path class="cls-1" d="M24.64,10.28l5.46,5.46L24.64,21.2l-5.46-5.46,5.46-5.46m0-1.42-6.88,6.88,6.88,6.87,6.87-6.87L24.64,8.86Z"/></svg>