<svg width="34" height="34" xmlns="http://www.w3.org/2000/svg" viewBox="0 0 34.03 34.01"><defs><style>.cls-1{fill:#fff;}.cls-2{fill:#1b1b1b;}</style></defs><rect class="cls-1" x="1.01" y="1.01" width="32.01" height="31.99"/><path class="cls-2" d="M32,2V32H2V2H32m2-2H0V34H34V0Z"/><rect class="cls-2" x="14.03" y="1.51" width="1.96" height="16.62"/><rect class="cls-2" x="17.99" y="14.85" width="2.04" height="17.53"/><rect class="cls-2" x="1.48" y="17.5" width="17.13" height="1.91"/><rect class="cls-2" x="1.48" y="22.33" width="17.13" height="0.98"/><rect class="cls-2" x="1.48" y="27.19" width="17.13" height="0.98"/><rect class="cls-2" x="15.67" y="4.83" width="17.13" height="0.98"/><rect class="cls-2" x="15.67" y="9.69" width="17.13" height="0.98"/><rect class="cls-2" x="23.05" y="15.01" width="0.98" height="17.13"/><rect class="cls-2" x="27.91" y="15.01" width="0.98" height="17.13"/><rect class="cls-2" x="5.05" y="1.39" width="0.98" height="17.13"/><rect class="cls-2" x="9.91" y="1.39" width="0.98" height="17.13"/><rect class="cls-2" x="15.69" y="13.62" width="17.13" height="1.91"/></svg>