<svg width="34" height="34" xmlns="http://www.w3.org/2000/svg" viewBox="0 0 38.44 29.11"><defs><style>.cls-1{fill:#ff8a00;}</style></defs><path class="cls-1" d="M19.2,1.24,27.43,7,19,12.89,10.82,7.14l8.38-5.9M19.2,0,9.07,7.14l10,7L29.17,7l-10-7Z"/><path class="cls-1" d="M19.2,16.24,27.43,22,19,27.89l-8.22-5.75,8.38-5.9m0-1.22L9.07,22.14l10,7L29.17,22l-10-7Z"/><path class="cls-1" d="M28.45,9.73l8.23,5.75-8.39,5.9-8.22-5.75,8.38-5.9m0-1.23L18.33,15.63l10,7,10.12-7.13-10-7Z"/><path class="cls-1" d="M10.14,9.9l8.22,5.75L10,21.55,1.75,15.8l8.39-5.9m0-1.22L0,15.81l10,7L20.1,15.65l-10-7Z"/></svg>