<svg width="34" height="34" xmlns="http://www.w3.org/2000/svg" viewBox="0 0 29.69 31.58"><defs><style>.cls-1{fill:none;stroke:#ff8a00;}.cls-2{fill:#ff8a00;}</style></defs><path class="cls-1" d="M.39,18.87s2.46-2.8,5-2.79c2,0,3.18,3.16,4.8,2.91s3.31-2.75,5.12-2.79,3.52,3,5,2.88c2.49-.26,3.69-3,5.08-3,2.79-.06,3.88,2.79,3.88,2.79"/><path class="cls-1" d="M.39,22.87s2.46-2.8,5-2.79c2,0,3.18,3.16,4.8,2.91s3.31-2.75,5.12-2.79,3.52,3,5,2.88c2.49-.26,3.69-3,5.08-3,2.79-.06,3.88,2.79,3.88,2.79"/><path class="cls-1" d="M.39,26.87s2.46-2.8,5-2.79c2,0,3.18,3.16,4.8,2.91s3.31-2.75,5.12-2.79,3.52,3,5,2.88c2.49-.26,3.69-3,5.08-3,2.79-.06,3.88,2.79,3.88,2.79"/><path class="cls-1" d="M.39,30.87s2.46-2.8,5-2.79c2,0,3.18,3.16,4.8,2.91s3.31-2.75,5.12-2.79,3.52,3,5,2.88c2.49-.26,3.69-3,5.08-3,2.79-.06,3.88,2.79,3.88,2.79"/><path class="cls-1" d="M12.12,14.62h0v-7A6.65,6.65,0,0,1,18.3,1V0a7.63,7.63,0,0,0-7.16,7.62V16h1Z"/><path class="cls-1" d="M21.12,14.62h0v-7A6.65,6.65,0,0,1,27.3,1V0a7.63,7.63,0,0,0-7.16,7.62V16h1Z"/><rect class="cls-1" x="11.93" y="6.24" width="8.83" height="1"/><rect class="cls-1" x="11.93" y="12.24" width="8.83" height="1"/></svg>