<svg width="34" height="34" xmlns="http://www.w3.org/2000/svg" viewBox="0 0 32.84 34.61"><defs><style>.cls-1{fill:#ff8a00;}</style></defs><title>Монтажная область 1</title><path class="cls-1" d="M16.28,24.13a12,12,0,1,1,12-12A12.05,12.05,0,0,1,16.28,24.13Zm0-23.07a11,11,0,1,0,11,11A11,11,0,0,0,16.28,1.06Z"/><polygon class="cls-1" points="12.12 25.21 11.41 26.08 11.41 26.08 6.55 32.38 5.93 29.95 5.75 29.24 5.01 29.2 1.96 29.03 6.74 22.83 6.74 22.8 7.6 21.73 6.8 21.11 0.01 29.93 4.96 30.2 6.09 34.61 12.88 25.8 12.12 25.21"/><polygon class="cls-1" points="20.71 25.09 21.42 25.96 21.42 25.95 26.28 32.26 26.9 29.83 27.09 29.12 27.82 29.08 30.87 28.91 26.09 22.7 26.09 22.68 25.23 21.61 26.03 20.99 32.82 29.8 27.87 30.07 26.74 34.49 19.95 25.68 20.71 25.09"/><polygon class="cls-1" points="18.75 16 16.38 14.76 14.02 16.01 14.47 13.38 12.55 11.52 15.19 11.13 16.37 8.72 17.56 11.12 20.2 11.5 18.3 13.37 18.75 16"/></svg>