<svg id="Слой_1" data-name="Слой 1" xmlns="http://www.w3.org/2000/svg" viewBox="0 0 105.67 74.01"><defs><style>.cls-1{fill:#ff8a00;}</style></defs><title>Монтажная область 1</title><path class="cls-1" d="M103.56,61.9v5H2.06v-5h101.5m2-2H.06v9h105.5v-9Z"/><path class="cls-1" d="M24.81,68.92v3h-3v-3h3m2-2h-7v7h7v-7Z"/><path class="cls-1" d="M83.81,68.92v3h-3v-3h3m2-2h-7v7h7v-7Z"/><path class="cls-1" d="M51.75,31.93V59.65H11.81V31.93H51.75m2-2H9.81V61.65H53.75V29.93Z"/><path class="cls-1" d="M37.81,51.9v4h-11v-4h11m2-2h-15v8h15v-8Z"/><path class="cls-1" d="M34.86,32.87v4.8l-2-1.2-1-.62-1,.62-1.92,1.17V32.87h6m2-2h-10V41.18l5-3,5,3V30.87Z"/><path class="cls-1" d="M93.75,31.93V59.65H53.81V31.93H93.75m2-2H51.81V61.65H95.75V29.93Z"/><path class="cls-1" d="M79.81,51.9v4h-11v-4h11m2-2h-15v8h15v-8Z"/><path class="cls-1" d="M76.86,32.87v4.8l-2-1.2-1-.62-1,.62-1.92,1.17V32.87h6m2-2h-10V41.18l5-3,5,3V30.87Z"/><path class="cls-1" d="M58.94,22v4H48V22h11m2-2H46v8h15V20Z"/><path class="cls-1" d="M56,3V7.79l-2-1.2-1-.61-1,.62L50,7.76V3h6m2-2H48V11.31l5-3,5,3V1Z"/><polygon class="cls-1" points="72.88 19.81 72.88 29.78 32.94 29.78 32.94 2.06 72.88 2.06 72.88 13.79 74.88 13.79 74.88 0.06 30.94 0.06 30.94 31.78 74.88 31.78 74.88 19.81 72.88 19.81"/></svg>