<svg id="Слой_1" data-name="Слой 1" xmlns="http://www.w3.org/2000/svg" viewBox="0 0 74.93 77.21"><defs><style>.cls-1,.cls-3{fill:#ff8a00;}.cls-2{fill:none;stroke:#ff8a00;stroke-width:2px;}.cls-3{font-size:18.18px;font-family:Roboto-Medium, Roboto;letter-spacing:0.05em;}</style></defs><title>Монтажная область 1</title><path class="cls-1" d="M21.25,36.06H4.34a2.29,2.29,0,0,1-2.28-2.28V4.34A2.29,2.29,0,0,1,4.34,2.06H60.05l6.69,7,2.8,0L60.9.06H4.34A4.28,4.28,0,0,0,.06,4.34V33.78a4.28,4.28,0,0,0,4.28,4.28H19.28Z"/><polyline class="cls-2" points="47.01 8.84 73.75 9.16 73.24 34.27"/><text class="cls-3" transform="matrix(0.69, -0.73, 0.73, 0.69, 29.65, 62.45)">SALE</text><path class="cls-1" d="M63.52,16.23a2.46,2.46,0,1,1-2.46,2.46,2.46,2.46,0,0,1,2.46-2.46m0-2A4.46,4.46,0,1,0,68,18.69a4.46,4.46,0,0,0-4.46-4.46Z"/><polygon class="cls-1" points="72.23 8.77 64.98 16.02 66.63 17.67 73.88 10.42 72.23 8.77 72.23 8.77"/><path class="cls-1" d="M13.2,10.42h0a2.72,2.72,0,0,1,2.65,2.41,2.76,2.76,0,0,1-.53,2.05,2.59,2.59,0,0,1-1.74,1,1.83,1.83,0,0,1-.33,0,2.71,2.71,0,0,1-2.65-2.41,2.78,2.78,0,0,1,.53-2,2.56,2.56,0,0,1,1.74-1l.33,0m0-1.5-.52,0a4.26,4.26,0,0,0,.57,8.47l.52,0a4.26,4.26,0,0,0-.57-8.47Z"/><path class="cls-1" d="M25.58,22.11h0a2.73,2.73,0,0,1,2.65,2.41,2.79,2.79,0,0,1-.54,2,2.52,2.52,0,0,1-1.74,1l-.33,0A2.73,2.73,0,0,1,23,25.2a2.82,2.82,0,0,1,.54-2.05,2.57,2.57,0,0,1,1.74-1l.33,0m0-1.5a4.53,4.53,0,0,0-.52,0,4.26,4.26,0,0,0,.56,8.47,4.53,4.53,0,0,0,.52,0,4.26,4.26,0,0,0-.56-8.47Z"/><rect class="cls-1" x="18.49" y="8.11" width="1.56" height="22.03" transform="translate(12.14 -7.08) rotate(30)"/><polygon class="cls-1" points="56 50.25 57.42 51.67 74.28 34.28 72.89 32.93 71.48 34.32 71.46 34.32 71.46 34.32 56 50.25"/><polygon class="cls-1" points="51.53 54.87 32.67 74.31 8.29 50.67 47.06 10.71 47.06 10.69 48.49 9.26 47.04 7.86 5.47 50.72 32.71 77.14 52.95 56.28 51.53 54.87"/></svg>