<svg id="Слой_1" data-name="Слой 1" xmlns="http://www.w3.org/2000/svg" viewBox="0 0 109.02 74.01"><defs><style>.cls-1{fill:#ff8a00;}</style></defs><title>Монтажная область 1</title><path class="cls-1" d="M61.89,52.91a3.45,3.45,0,0,0-1.07-2.58,9.53,9.53,0,0,0-3.62-1.89A11.61,11.61,0,0,1,52,45.62a6.24,6.24,0,0,1-1.62-4.42A6.41,6.41,0,0,1,52,36.72a6.78,6.78,0,0,1,4.37-2.08V31h2.48v3.66A6.43,6.43,0,0,1,63.2,37a8.42,8.42,0,0,1,1.56,5.38H61.69a5.81,5.81,0,0,0-1.11-3.74,3.69,3.69,0,0,0-3-1.39,4.18,4.18,0,0,0-3,1,3.81,3.81,0,0,0-1,2.86,3.5,3.5,0,0,0,1.11,2.71,10.16,10.16,0,0,0,3.64,1.83,15.38,15.38,0,0,1,4,1.82,6.41,6.41,0,0,1,2.1,2.3A6.66,6.66,0,0,1,65,52.88a6.18,6.18,0,0,1-1.69,4.53,7.47,7.47,0,0,1-4.73,2v3.18H56.08V59.44a7.2,7.2,0,0,1-4.85-2.21A7.44,7.44,0,0,1,49.48,52h3.08a4.92,4.92,0,0,0,1.21,3.57,4.6,4.6,0,0,0,3.45,1.24,5.24,5.24,0,0,0,3.43-1A3.56,3.56,0,0,0,61.89,52.91Z"/><path class="cls-1" d="M106.81,22.91v49H9.31v-49h97.5m2-2H7.31v53h101.5v-53Z"/><path class="cls-1" d="M58.62,28.16A19.13,19.13,0,1,1,39.56,47.29,19.12,19.12,0,0,1,58.62,28.16m0-2A21.13,21.13,0,1,0,79.69,47.29,21.1,21.1,0,0,0,58.62,26.16Z"/><path class="cls-1" d="M107.76,39.33A19.12,19.12,0,0,1,90.38,21.72l-2,0a21.08,21.08,0,0,0,19.41,19.65Z"/><path class="cls-1" d="M107.76,55.68A19.12,19.12,0,0,0,90.38,73.29l-2,0a21.08,21.08,0,0,1,19.41-19.65Z"/><path class="cls-1" d="M9.18,39.31A19.1,19.1,0,0,0,26.55,21.69l2,0A21.08,21.08,0,0,1,9.15,41.31Z"/><path class="cls-1" d="M9.18,55.66A19.09,19.09,0,0,1,26.55,73.27l2,0A21.07,21.07,0,0,0,9.15,53.66Z"/><rect class="cls-1" x="56.42" y="36.04" width="2.38" height="6.17"/><rect class="cls-1" x="56.1" y="52.04" width="2.38" height="6.17"/><polygon class="cls-1" points="8.44 60.66 9.21 59.5 2.36 18.43 98.54 2.4 101.04 17.41 103.07 17.41 100.18 0.09 0.06 16.79 8.38 66.64 8.44 60.66"/></svg>