<svg width="37" height="37" xmlns="http://www.w3.org/2000/svg" viewBox="0 0 35.09 33.95"><defs><style>.san-1{fill:#1b1b1b;}.san-2{fill:#fff;fill-rule:evenodd;}</style></defs><g><path class="san-1" d="M22.16,0a5.11,5.11,0,0,0-5.1,5.11V16.19a.07.07,0,0,0,.07.07h1.93V14.17h0v-9A3.1,3.1,0,0,1,22.16,2,2.83,2.83,0,0,1,25,4.85V7.51h2V4.85A4.83,4.83,0,0,0,22.16,0Z"/><path class="san-2" d="M7.17,27.11A6.16,6.16,0,0,1,1,21V15.55H34.07V21a6.16,6.16,0,0,1-6.15,6.15Z"/><path class="san-1" d="M33.07,16.55V21a5.16,5.16,0,0,1-5.15,5.15H7.17A5.16,5.16,0,0,1,2,21V16.55H33.07m2-2H0V21a7.16,7.16,0,0,0,7.16,7.15H27.92A7.15,7.15,0,0,0,35.07,21V14.55Z"/><path class="san-1" d="M20,28.27v2.86a.79.79,0,0,1-.79.79H16.9a.79.79,0,0,1-.79-.79V28.27H20m2-2H14.11v4.86a2.79,2.79,0,0,0,2.79,2.79h2.35A2.79,2.79,0,0,0,22,31.13V26.27Z"/><polygon class="san-1" points="13.09 10.69 8.14 10.69 8.14 12.63 13.09 12.63 13.09 10.69 13.09 10.69"/><polygon class="san-1" points="13.08 10.71 11.13 10.71 11.13 14.7 13.08 14.7 13.08 10.71 13.08 10.71"/><polygon class="san-1" points="28.09 10.69 23.14 10.69 23.14 12.63 28.09 12.63 28.09 10.69 28.09 10.69"/><polygon class="san-1" points="25.1 10.71 23.14 10.71 23.14 14.7 25.1 14.7 25.1 10.71 25.1 10.71"/></g></svg>