<svg width="33" height="32" viewBox="0 0 33 32" fill="none" xmlns="http://www.w3.org/2000/svg">
<rect x="0.25" width="32" height="32" rx="2" fill="#FFD546"/>
<path d="M9.56563 4.13599C9.05938 4.32349 8.525 4.69849 8.23438 5.07349C7.69063 5.78599 7.48438 6.90161 7.71875 7.77349C7.86875 8.30786 8.375 8.99224 8.88125 9.32036L9.33125 9.62974H7.94375C6.37813 9.62974 5.9375 9.71411 5.65625 10.0704C5.4875 10.2954 5.46875 10.436 5.46875 11.9172C5.46875 13.2954 5.49688 13.5485 5.6375 13.7172C5.9 14.0454 6.1625 14.1297 6.95938 14.1297H7.71875V20.2047C7.71875 26.936 7.71875 26.9454 8.3 27.5079C8.46875 27.6766 8.73125 27.8547 8.87188 27.9016C9.2375 28.0422 23.2625 28.0422 23.6281 27.9016C23.7688 27.8547 24.0312 27.6766 24.2 27.5079C24.7812 26.9454 24.7812 26.936 24.7812 20.2047V14.1297H25.5406C26.3375 14.1297 26.6 14.0454 26.8625 13.7172C27.0031 13.5485 27.0312 13.2954 27.0312 11.9172C27.0312 10.436 27.0125 10.2954 26.8438 10.0704C26.5625 9.71411 26.1219 9.62974 24.5563 9.62974H23.1688L23.6188 9.32036C24.1344 8.98286 24.6313 8.29849 24.7906 7.72661C24.9406 7.15474 24.8563 6.10474 24.6125 5.62661C23.8625 4.17349 22.3156 3.62974 20.6844 4.23911C19.5313 4.67974 18.125 5.51411 16.8781 6.51724L16.25 7.02349L15.6125 6.51724C14.4688 5.58911 12.9031 4.65161 11.8063 4.23911C11.0938 3.96724 10.1562 3.92974 9.56563 4.13599ZM11.3938 6.01099C12.3125 6.41411 13.4188 7.06099 14.1688 7.65161C14.6375 8.01724 14.7219 8.12036 14.5906 8.16724C14.2438 8.30786 12.3219 8.33599 11.375 8.23286C9.84688 8.04536 9.5 7.82974 9.425 6.97661C9.37813 6.41411 9.55625 6.10474 10.0813 5.85161C10.5031 5.64536 10.5688 5.64536 11.3938 6.01099ZM22.5969 5.93599C22.9344 6.14224 23.1219 6.60161 23.0656 7.07036C22.9813 7.82974 22.6063 8.05474 21.125 8.23286C20.1781 8.33599 18.2563 8.30786 17.9094 8.16724C17.5156 8.01724 20.3469 6.19849 21.5469 5.82349C21.95 5.70161 22.2688 5.72974 22.5969 5.93599ZM18.8188 15.1797C18.9031 15.2922 18.9688 15.4422 18.9688 15.5079C18.9688 15.7141 14.5719 24.2922 14.4031 24.4141C14.0563 24.6766 13.5312 24.4329 13.5312 24.011C13.5312 23.786 17.75 15.4235 18.0031 15.1329C18.2188 14.9079 18.6406 14.9266 18.8188 15.1797ZM14.5156 15.9579C15.7344 16.7172 15.8656 18.4141 14.7781 19.3891C14.2906 19.8297 13.8313 19.9797 13.1563 19.9141C12.3219 19.8391 11.7406 19.4172 11.3844 18.6297C10.9156 17.5985 11.4031 16.286 12.4438 15.7985C13.0344 15.5266 13.9344 15.6016 14.5156 15.9579ZM19.9719 19.7172C20.4688 19.8954 21.0875 20.5797 21.2281 21.1047C21.6594 22.7172 20.15 24.2266 18.5375 23.7954C18.1063 23.6829 17.4313 23.1391 17.2344 22.7547C16.7094 21.7422 17.0188 20.5141 17.9563 19.8954C18.5844 19.4829 19.1563 19.4266 19.9719 19.7172Z" fill="#D63E30"/>
<path d="M12.875 16.8767C12.7438 16.9423 12.5656 17.1485 12.4625 17.3548C11.9469 18.4142 13.325 19.3329 14.1219 18.4423C14.4969 18.0204 14.4781 17.4954 14.0563 17.0735C13.7094 16.7267 13.3063 16.661 12.875 16.8767Z" fill="#D63E30"/>
<path d="M18.6031 20.8236C18.0875 21.1048 17.9656 21.8923 18.3594 22.3611C18.8281 22.9236 19.775 22.8017 20.0563 22.1454C20.45 21.1986 19.4938 20.3361 18.6031 20.8236Z" fill="#D63E30"/>
</svg>
