<svg width="33" height="32" viewBox="0 0 33 32" fill="none" xmlns="http://www.w3.org/2000/svg">
<rect x="0.25" width="32" height="32" rx="2" fill="#FF8A00"/>
<path d="M14.0407 5.0077C12.9907 5.1457 12.0247 6.1357 11.8447 7.2577C11.7727 7.7257 11.8627 8.6677 12.0247 9.1297C12.2707 9.8317 12.7507 10.3597 13.4347 10.6777C13.7407 10.8217 13.8607 10.8457 14.3587 10.8457C14.8747 10.8457 14.9647 10.8277 15.3247 10.6597C16.3627 10.1677 16.9687 9.1417 16.9627 7.8757C16.9507 6.0877 15.6367 4.8037 14.0407 5.0077ZM14.9287 6.8197C15.9007 7.7917 15.1147 9.7537 13.9987 9.1297C13.5607 8.8837 13.3447 8.3437 13.4167 7.6597C13.4827 7.0417 13.9087 6.5557 14.4007 6.5557C14.6287 6.5557 14.6947 6.5857 14.9287 6.8197Z" fill="white"/>
<path d="M20.6647 5.88374C20.4667 5.98574 20.2387 6.27974 16.1707 11.7997C15.7867 12.3277 15.2407 13.0717 14.9587 13.4497C14.1187 14.5897 14.0587 14.6857 14.0227 14.9077C13.9747 15.2017 14.1727 15.6397 14.4307 15.7957C14.7007 15.9577 15.1867 15.9577 15.3967 15.7957C15.5407 15.6817 15.7867 15.3637 17.3347 13.2757C17.7667 12.6997 18.7207 11.4157 19.4587 10.4257C22.0447 6.96374 21.9787 7.05374 21.9787 6.75974C21.9787 6.39974 21.8287 6.12374 21.5407 5.93174C21.2527 5.75174 20.9647 5.73374 20.6647 5.88374Z" fill="white"/>
<path d="M21.3187 10.5457C19.6207 11.0257 18.8107 13.2097 19.6927 14.9437C20.2327 15.9937 21.3307 16.5757 22.3447 16.3357C23.6407 16.0357 24.4867 14.9617 24.5347 13.5757C24.5527 12.9517 24.4867 12.5977 24.2287 12.0337C23.6947 10.8697 22.4467 10.2337 21.3187 10.5457ZM22.2007 12.0817C22.4287 12.1657 22.6267 12.3577 22.7767 12.6457C22.9627 12.9937 22.9567 13.8037 22.7767 14.1517C22.6207 14.4517 22.3447 14.6917 22.1047 14.7457C21.9187 14.7877 21.5527 14.6617 21.3607 14.4877C21.0187 14.1817 20.8747 13.4737 21.0427 12.9037C21.1507 12.5317 21.3127 12.2917 21.5827 12.1297C21.7927 11.9977 21.9547 11.9857 22.2007 12.0817Z" fill="white"/>
<path d="M10.8787 18.5977C10.5187 18.6277 10.0387 18.7357 9.19867 18.9757C8.14267 19.2817 7.92667 19.3237 7.08667 19.4317C5.74867 19.5937 5.22667 19.7797 4.90267 20.2057C4.59667 20.6077 4.50067 21.3277 4.64467 22.1317C4.71067 22.4917 5.30467 24.6817 5.43067 25.0057C5.68867 25.6897 6.30667 25.8097 7.31467 25.3837C7.87867 25.1437 7.93867 25.1317 8.50867 25.1317C9.05467 25.1377 9.19867 25.1617 10.1287 25.4437C12.1207 26.0377 14.9047 26.7997 15.5887 26.9317C16.3687 27.0877 17.1547 27.0217 18.2287 26.7217C19.5787 26.3437 22.1827 25.2217 23.5267 24.4477C23.7487 24.3157 24.0487 24.1477 24.1987 24.0637C24.3487 23.9797 24.8887 23.6557 25.3987 23.3437C27.5707 22.0117 27.6067 21.9877 27.8047 21.6037C28.2247 20.7937 27.4387 19.6957 26.5387 19.8397C26.3227 19.8757 25.5187 20.1877 24.7987 20.5237C24.1687 20.8117 22.6747 21.5137 21.1687 22.2337C19.0387 23.2417 18.2467 23.4097 16.4287 23.2297C15.6967 23.1577 14.7007 22.9897 14.6167 22.9177C14.4727 22.8097 14.5387 22.6897 14.7967 22.5757C15.0307 22.4737 15.1147 22.4677 15.6247 22.5217C16.5847 22.6237 18.1387 22.4737 18.7147 22.2217C19.4947 21.8737 19.8727 20.9377 19.4647 20.3677C19.2907 20.1217 18.6787 19.8277 18.1987 19.7557C17.9827 19.7257 17.3527 19.6717 16.7887 19.6357C15.6547 19.5697 15.2647 19.4857 14.6707 19.1857C13.8667 18.7717 12.0187 18.4897 10.8787 18.5977Z" fill="white"/>
<path d="M23.6587 19.1018C23.2807 19.2338 22.9027 19.3658 22.8187 19.3898C22.6027 19.4618 20.8747 20.1638 20.4367 20.3618L20.0647 20.5298L20.1307 20.7518C20.2027 21.0278 20.1127 21.5378 19.9387 21.8378C19.8067 22.0598 19.7827 22.2158 19.8787 22.2158C19.9147 22.2158 20.4067 21.9878 20.9767 21.7118C21.5467 21.4358 22.1587 21.1418 22.3387 21.0578C22.5187 20.9798 22.8607 20.8238 23.0887 20.7158C23.8627 20.3558 24.1687 20.2298 24.7687 20.0018C25.0987 19.8698 25.4167 19.7558 25.4767 19.7318C25.6447 19.6778 25.6567 19.5398 25.5067 19.3358C25.3027 19.0538 24.9307 18.8558 24.6127 18.8558C24.4627 18.8618 24.0487 18.9638 23.6587 19.1018Z" fill="white"/>
</svg>
