<svg width="33" height="32" viewBox="0 0 33 32" fill="none" xmlns="http://www.w3.org/2000/svg">
<rect x="0.25" width="32" height="32" rx="2" fill="#D63E30"/>
<g clip-path="url(#clip0_570_1535)">
<path d="M4.99701 8.02657C4.69237 8.0716 4.46721 8.24378 4.33211 8.52988L4.26323 8.67557C4.26323 10.0001 4.2473 22.0372 4.31356 22.2252C4.37979 22.4133 4.60495 22.6464 4.79303 22.7153C4.91224 22.763 5.0235 22.7683 5.97449 22.7762L7.02085 22.7842L7.05264 22.5908C7.19568 21.661 7.88972 20.7391 8.79038 20.2809C9.87383 19.7272 11.1506 19.8305 12.1493 20.5484C12.3904 20.7233 12.7401 21.0756 12.9175 21.3246C13.1718 21.6822 13.3864 22.1961 13.4473 22.5908L13.4791 22.7842L15.4526 22.7762L17.4288 22.7683L17.5957 22.6915C17.8659 22.567 18.0248 22.3524 18.0778 22.0372C18.046 17.0001 18.0778 13.5001 18.046 8.58816C17.9401 8.32326 17.7758 8.16432 17.5056 8.061C17.3811 8.01597 17.1374 8.01332 11.2566 8.01067C7.89237 8.00802 5.07383 8.01597 4.99701 8.02657Z" fill="white"/>
<path d="M11.7017 17V16.037H10.9817V15.164H11.7017V14.462H10.9817V13.346H11.7017V10.574H13.7537C14.5817 10.574 15.1847 10.742 15.5627 11.078C15.9467 11.414 16.1387 11.876 16.1387 12.464C16.1387 12.812 16.0607 13.139 15.9047 13.445C15.7487 13.751 15.4877 13.997 15.1217 14.183C14.7617 14.369 14.2697 14.462 13.6457 14.462H13.0607V15.164H14.4467V16.037H13.0607V17H11.7017ZM13.5107 13.346C13.8947 13.346 14.1977 13.28 14.4197 13.148C14.6477 13.016 14.7617 12.803 14.7617 12.509C14.7617 11.963 14.4017 11.69 13.6817 11.69H13.0607V13.346H13.5107Z" fill="#D63E30"/>
<path d="M11.7017 17V16.037H10.9817V15.164H11.7017V14.462H10.9817V13.346H11.7017V10.574H13.7537C14.5817 10.574 15.1847 10.742 15.5627 11.078C15.9467 11.414 16.1387 11.876 16.1387 12.464C16.1387 12.812 16.0607 13.139 15.9047 13.445C15.7487 13.751 15.4877 13.997 15.1217 14.183C14.7617 14.369 14.2697 14.462 13.6457 14.462H13.0607V15.164H14.4467V16.037H13.0607V17H11.7017ZM13.5107 13.346C13.8947 13.346 14.1977 13.28 14.4197 13.148C14.6477 13.016 14.7617 12.803 14.7617 12.509C14.7617 11.963 14.4017 11.69 13.6817 11.69H13.0607V13.346H13.5107Z" fill="#D63E30"/>
<path d="M11.7017 17V16.037H10.9817V15.164H11.7017V14.462H10.9817V13.346H11.7017V10.574H13.7537C14.5817 10.574 15.1847 10.742 15.5627 11.078C15.9467 11.414 16.1387 11.876 16.1387 12.464C16.1387 12.812 16.0607 13.139 15.9047 13.445C15.7487 13.751 15.4877 13.997 15.1217 14.183C14.7617 14.369 14.2697 14.462 13.6457 14.462H13.0607V15.164H14.4467V16.037H13.0607V17H11.7017ZM13.5107 13.346C13.8947 13.346 14.1977 13.28 14.4197 13.148C14.6477 13.016 14.7617 12.803 14.7617 12.509C14.7617 11.963 14.4017 11.69 13.6817 11.69H13.0607V13.346H13.5107Z" fill="#D63E30"/>
<path d="M10.6376 13.9169C10.6376 15.049 10.4514 15.8869 10.079 16.4308C9.70951 16.9747 9.13905 17.2466 8.36759 17.2466C7.61979 17.2466 7.05524 16.9658 6.67395 16.4042C6.29561 15.8426 6.10645 15.0135 6.10645 13.9169C6.10645 12.7731 6.29118 11.9307 6.66065 11.3898C7.03012 10.8459 7.5991 10.574 8.36759 10.574C9.1154 10.574 9.67995 10.8577 10.0612 11.4252C10.4455 11.9927 10.6376 12.8233 10.6376 13.9169ZM7.46757 13.9169C7.46757 14.712 7.53555 15.2825 7.67152 15.6283C7.81044 15.9712 8.04246 16.1426 8.36759 16.1426C8.68682 16.1426 8.91736 15.9682 9.05924 15.6194C9.20112 15.2707 9.27205 14.7032 9.27205 13.9169C9.27205 13.1218 9.19964 12.5514 9.05481 12.2055C8.91293 11.8568 8.68386 11.6824 8.36759 11.6824C8.04542 11.6824 7.81487 11.8568 7.67595 12.2055C7.53703 12.5514 7.46757 13.1218 7.46757 13.9169Z" fill="#D63E30"/>
<path d="M19.6301 11.7509C19.4473 11.8091 19.3149 11.8992 19.2063 12.0423C19.0182 12.286 19.0315 11.9177 19.0315 17.2343C19.0315 22.0264 19.0315 22.037 19.0871 22.1853C19.1983 22.482 19.5295 22.7469 19.8156 22.7628L19.9374 22.7681L19.9904 22.5191C20.1202 21.8807 20.4434 21.3085 20.9467 20.8264C21.2937 20.4979 21.6672 20.2648 22.1043 20.1111C23.6646 19.5628 25.3997 20.2674 26.1016 21.735C26.2288 21.9972 26.3348 22.331 26.3745 22.5906L26.4063 22.7866L26.9891 22.776C27.6911 22.7628 27.7599 22.7442 27.9904 22.5164C28.1122 22.3919 28.1493 22.3363 28.1944 22.1879C28.25 22.0105 28.25 21.9707 28.25 19.5495C28.25 16.882 28.2526 16.9085 28.1017 16.5111C28.0142 16.2807 27.7891 15.8383 27.6487 15.6184C27.4262 15.2767 25.4606 12.5985 25.246 12.3469C24.9361 11.984 24.7162 11.8224 24.4222 11.7456C24.2156 11.6899 19.8129 11.6952 19.6301 11.7509ZM24.2209 13.6211C24.3798 13.7085 24.3877 13.7191 25.352 15.0595C26.5122 16.6727 26.6844 16.9376 26.6871 17.1045V17.1654H24.2367H21.7864V15.3694C21.7864 14.3813 21.7944 13.5628 21.805 13.5548C21.8129 13.5442 22.3242 13.5363 22.9414 13.5363H24.0593L24.2209 13.6211Z" fill="white"/>
<path d="M9.82615 21.1496C8.77979 21.388 8.06721 22.3098 8.12549 23.3509C8.14403 23.6635 8.19172 23.8648 8.31622 24.1244C8.48046 24.4767 8.71357 24.7575 9.01026 24.9694C10.0858 25.7403 11.5639 25.3642 12.1652 24.1668C12.4195 23.6635 12.446 23.0039 12.2341 22.4741C12.1149 22.1747 11.9877 21.984 11.7493 21.7456C11.4818 21.4781 11.2487 21.335 10.899 21.2158C10.6791 21.1416 10.605 21.131 10.3162 21.1231C10.099 21.1151 9.92946 21.1257 9.82615 21.1496Z" fill="white"/>
<path d="M22.7533 21.1496C22.3083 21.2529 22.001 21.4225 21.6778 21.7457C21.2169 22.2066 21.0182 22.7231 21.0526 23.3668C21.0924 24.1483 21.5612 24.8317 22.295 25.1788C22.5281 25.29 22.9149 25.3774 23.1771 25.3774C23.6248 25.3774 24.1599 25.1841 24.5096 24.9006C24.9997 24.5006 25.3096 23.8596 25.3096 23.245C25.3096 22.6622 25.042 22.0715 24.5944 21.6635C24.3692 21.4569 24.1308 21.3192 23.8129 21.2132C23.6089 21.1443 23.5268 21.1311 23.2434 21.1231C23.0235 21.1152 22.8593 21.1258 22.7533 21.1496Z" fill="white"/>
</g>
<defs>
<clipPath id="clip0_570_1535">
<rect width="24" height="17.3775" fill="white" transform="translate(4.25 8)"/>
</clipPath>
</defs>
</svg>
