<?xml version="1.0" standalone="no"?>
<!DOCTYPE svg PUBLIC "-//W3C//DTD SVG 20010904//EN"
 "http://www.w3.org/TR/2001/REC-SVG-20010904/DTD/svg10.dtd">
<svg version="1.0" xmlns="http://www.w3.org/2000/svg"
 width="700.000000pt" height="700.000000pt" viewBox="0 0 700.000000 700.000000"
 preserveAspectRatio="xMidYMid meet">
<metadata>
Created by potrace 1.14, written by Peter Selinger 2001-2017
</metadata>
<g transform="translate(0.000000,700.000000) scale(0.100000,-0.100000)"
fill="#000000" stroke="none">
<path d="M0 4820 c0 -1199 2 -2180 5 -2180 3 0 179 159 392 353 385 350 1189
1072 2338 2100 330 296 604 535 610 533 5 -3 73 -34 150 -69 165 -76 418 -179
709 -288 115 -44 210 -79 212 -79 2 0 4 105 4 233 l0 232 394 3 394 3 6 -23
c3 -13 6 -185 6 -383 l0 -360 223 -94 c122 -52 314 -132 427 -178 274 -113
357 -153 456 -218 107 -71 185 -149 370 -365 162 -191 275 -310 293 -310 8 0
11 426 11 1635 l0 1635 -3500 0 -3500 0 0 -2180z"/>
<path d="M3199 5267 c-325 -270 -1312 -1184 -2734 -2532 -215 -203 -407 -384
-428 -402 l-37 -32 0 -1151 0 -1150 3500 0 3500 0 0 825 0 825 -625 0 c-344 0
-625 2 -625 5 0 2 44 66 98 142 116 162 221 318 228 337 5 14 -409 508 -1785
2131 -739 871 -942 1105 -961 1105 -4 0 -63 -46 -131 -103z m374 -487 c292
-352 442 -529 802 -940 586 -669 1066 -1229 1074 -1253 14 -41 -676 595 -1289
1188 -415 401 -606 581 -743 700 -77 67 -78 68 -99 49 -111 -96 -1245 -1127
-1423 -1293 -812 -759 -959 -878 -1130 -911 -74 -14 -349 -10 -365 6 -8 8 -4
20 17 44 15 19 345 325 733 680 388 356 1038 953 1445 1328 597 550 742 678
754 669 7 -6 108 -126 224 -267z m-323 -1730 l0 -450 -360 0 -360 0 0 372 c0
357 1 373 21 415 24 49 68 87 119 101 19 6 158 11 308 11 l272 1 0 -450z m705
439 c54 -15 101 -52 125 -99 19 -37 20 -60 20 -415 l0 -375 -355 0 -355 0 0
450 0 450 263 0 c158 0 278 -4 302 -11z m-705 -1495 l0 -436 -288 4 -289 3
-48 30 c-32 20 -56 45 -72 74 -23 44 -23 47 -23 403 l0 358 360 0 360 0 0
-436z m850 76 c0 -334 -1 -364 -19 -398 -22 -43 -42 -62 -91 -88 -31 -17 -65
-19 -317 -22 l-283 -4 0 436 0 436 355 0 355 0 0 -360z"/>
</g>
</svg>
