<svg width="18" height="18" viewBox="0 0 18 18" fill="none" xmlns="http://www.w3.org/2000/svg">
  <path d="M9 0C4.03763 0 0 4.03763 0 9C0 13.9624 4.03763 18 9 18C13.9624 18 18 13.9624 18 9C18 4.03763 13.9624 0 9 0ZM9 16.875C4.6575 16.875 1.125 13.3425 1.125 9C1.125 4.6575 4.6575 1.125 9 1.125C13.3425 1.125 16.875 4.6575 16.875 9C16.875 13.3425 13.3425 16.875 9 16.875Z" fill="red"/>
  <path d="M9.5625 3.9375H8.4375V11.8125H9.5625V3.9375Z" fill="red"/>
  <path d="M9.5625 12.9375H8.4375V14.0625H9.5625V12.9375Z" fill="red"/>
</svg>
