<svg width="25" height="22" xmlns="http://www.w3.org/2000/svg" viewBox="0 0 26.97 27"><defs><style>.cls-1{fill:#fff;}.cls-2{fill:#201600;}</style></defs><rect class="cls-1" x="0.5" y="2.03" width="25.98" height="3"></rect><path class="cls-2" d="M26,2.53v2H1v-2H26m1-1H0v4H27v-4Z"></path><path class="cls-1" d="M13.36,6.56a3,3,0,1,1,3-3A3,3,0,0,1,13.36,6.56Z"></path><path class="cls-2" d="M13.36,1a2.53,2.53,0,1,1-2.53,2.53A2.54,2.54,0,0,1,13.36,1m0-1a3.53,3.53,0,1,0,3.53,3.53A3.53,3.53,0,0,0,13.36,0Z"></path><rect class="cls-1" x="0.5" y="12.03" width="22.86" height="3"></rect><path class="cls-2" d="M22.86,12.53v2H1v-2H22.86m1-1H0v4H23.86v-4Z"></path><path class="cls-1" d="M23.36,16.56a3,3,0,1,1,3-3A3,3,0,0,1,23.36,16.56Z"></path><path class="cls-2" d="M23.36,11a2.53,2.53,0,1,1-2.53,2.53A2.54,2.54,0,0,1,23.36,11m0-1a3.53,3.53,0,1,0,3.53,3.53A3.53,3.53,0,0,0,23.36,10Z"></path><rect class="cls-1" x="3.85" y="22.03" width="22.62" height="3"></rect><path class="cls-2" d="M26,22.53v2H4.35v-2H26m1-1H3.35v4H27v-4Z"></path><path class="cls-1" d="M3.59,26.5a3,3,0,1,1,3-3A3,3,0,0,1,3.59,26.5Z"></path><path class="cls-2" d="M3.59,20.94a2.53,2.53,0,1,1-2.53,2.53,2.53,2.53,0,0,1,2.53-2.53m0-1a3.53,3.53,0,1,0,3.53,3.53,3.53,3.53,0,0,0-3.53-3.53Z"></path></svg>